<?xml version="1.0" encoding="UTF-8" standalone="no"?>
<svg
   xmlns:dc="http://purl.org/dc/elements/1.1/"
   xmlns:cc="http://creativecommons.org/ns#"
   xmlns:rdf="http://www.w3.org/1999/02/22-rdf-syntax-ns#"
   xmlns:svg="http://www.w3.org/2000/svg"
   xmlns="http://www.w3.org/2000/svg"
   xmlns:sodipodi="http://sodipodi.sourceforge.net/DTD/sodipodi-0.dtd"
   xmlns:inkscape="http://www.inkscape.org/namespaces/inkscape"
   width="230.94141pt"
   height="231pt"
   viewBox="0 0 230.94141 231"
   version="1.1"
   id="svg103"
   sodipodi:docname="storium-icon.svg"
   inkscape:version="1.0.1 (c497b03c, 2020-09-10)">
  <metadata
     id="metadata107">
    <rdf:RDF>
      <cc:Work
         rdf:about="">
        <dc:format>image/svg+xml</dc:format>
        <dc:type
           rdf:resource="http://purl.org/dc/dcmitype/StillImage" />
        <dc:title />
      </cc:Work>
    </rdf:RDF>
  </metadata>
  <sodipodi:namedview
     pagecolor="#ffffff"
     bordercolor="#666666"
     borderopacity="1"
     objecttolerance="10"
     gridtolerance="10"
     guidetolerance="10"
     inkscape:pageopacity="0"
     inkscape:pageshadow="2"
     inkscape:window-width="1482"
     inkscape:window-height="667"
     id="namedview105"
     showgrid="false"
     inkscape:zoom="0.9871875"
     inkscape:cx="533.2552"
     inkscape:cy="153.33334"
     inkscape:window-x="0"
     inkscape:window-y="23"
     inkscape:window-maximized="0"
     inkscape:current-layer="svg103"
     inkscape:document-rotation="0" />
  <defs
     id="defs16">
    <clipPath
       id="clip1">
      <path
         d="m 781,175 h 18.92578 v 23 H 781 Z m 0,0"
         id="path10" />
    </clipPath>
    <clipPath
       id="clip2">
      <path
         d="M 0.0585938,1 H 231 V 232 H 0.0585938 Z m 0,0"
         id="path13" />
    </clipPath>
  </defs>
  <g
     id="surface1"
     transform="translate(-0.0585938,-1)">
    <g
       clip-path="url(#clip2)"
       clip-rule="nonzero"
       id="g92">
      <path
         style="fill:#0f0c0c;fill-opacity:1;fill-rule:nonzero;stroke:none"
         d="m 115.5,17.1875 c -54.761719,0 -99.308594,44.550781 -99.308594,99.3125 0,54.75781 44.546875,99.30859 99.308594,99.30859 54.76172,0 99.30859,-44.55078 99.30859,-99.30859 0,-54.761719 -44.54687,-99.3125 -99.30859,-99.3125 z M 115.5,232 C 51.8125,232 0,180.1875 0,116.5 0,52.8125 51.8125,1 115.5,1 179.1875,1 231,52.8125 231,116.5 231,180.1875 179.1875,232 115.5,232"
         id="path90" />
    </g>
    <path
       style="fill:#0f0c0c;fill-opacity:1;fill-rule:nonzero;stroke:none"
       d="m 100.24219,165.72266 c -0.761721,-1.48438 -2.175784,-2.34766 -4.488284,-1.85157 -22.242187,4.76172 -27.09375,1.15625 -38.070312,3.48438 -6.15625,1.17187 -3.070313,22.87109 4.460937,20.91797 8.414063,-2.5625 15.125,-4.64063 29.929688,-9.39453 l 8.167971,-13.15625"
       id="path94" />
    <path
       style="fill:#0f0c0c;fill-opacity:1;fill-rule:nonzero;stroke:none"
       d="m 130.57812,179.66406 c 12.95313,5.58594 20.74219,8.8125 28.44922,11.9961 14.8086,6.26171 16.76172,-19.1211 9.94532,-20.73438 -9.65625,-2.43359 -20.24219,-0.20312 -37.1836,-4.46094 -4.92968,-1.24218 -6.98047,10.71094 -1.21094,13.19922"
       id="path96" />
    <path
       style="fill:#0f0c0c;fill-opacity:1;fill-rule:nonzero;stroke:none"
       d="m 113.02344,153.50391 c -10.71875,23.03515 -20.925784,34.1875 -25.328128,43.79687 -3.859374,7.64453 24.171878,15.03516 25.933598,6.58984 2.79297,-10.30468 5.92968,-22.3125 12.41015,-46.29687 1.16797,-4.31641 -10.26172,-10.00781 -13.01562,-4.08984"
       id="path98" />
    <path
       style="fill:#0f0c0c;fill-opacity:1;fill-rule:nonzero;stroke:none"
       d="m 165.96875,105.68359 c -6.46484,-9.023434 -13.97656,-15.894528 -9.25,-27.968746 -6.01953,3.734375 -4.75781,14.976562 -12.23828,15.753906 -4.00781,0.414062 -8.36719,-2.085938 -9.12891,-6.183594 -0.83594,-4.5 2.2461,-7.835937 3.40235,-11.941406 5.73046,-20.335938 -7.61719,-38.265625 -24.53907,-47.78125 4.64454,16.234375 5.02344,34.050781 -8.18359,46.207031 -0.043,-11.015625 -4.09766,-15.78125 -11.886719,-22.398437 1.890625,12.953125 -2.703125,21.996094 -11.566406,30.929687 -9.257813,9.335938 -12.816406,18.722659 -9.511719,31.917969 -7.304687,0.40625 -10.785156,-9.62891 -10.285156,-15.363281 -6.828125,13.371091 -8.9375,30.570311 -0.671875,43.832031 4.707031,7.55078 12.03125,12.02734 20.109375,14.96094 -3.363281,-4.52735 -4.710938,-10.8125 -2.347656,-16.01953 3.839844,-8.44532 9.011718,-9.4961 7.574218,-16.27344 2.824219,2.14062 2.011719,5.48047 2.863282,8.35547 1.0625,3.60156 4.214844,5.27734 7.683594,5.64062 5.031252,0.52735 11.332032,-3.92578 8.644532,-9.55859 -2.73828,-5.78125 -7.308595,-10.67578 -5.85547,-17.52734 1.44141,-6.77344 6.98828,-11.52344 12.33594,-15.406255 -2.21875,5.453125 -4.02735,11.910155 -1.70313,17.632815 1.6836,4.14844 5.19141,7.05469 8.19141,10.23047 0.0312,-5.67969 2.32812,-10.6836 7.13672,-13.80469 -2.56641,8.03125 2.49218,14.86719 7.36328,20.73047 2.24219,2.69922 4.64062,5.38281 6.26172,8.51562 0.8125,1.57031 1.35937,2.53906 1.21093,3.8125 3.52344,-0.67187 4.64454,-4.03906 4.9961,-5.90625 5.13672,3.84766 2.61719,13.44141 -0.41406,17.61719 -0.63672,0.88281 -1.34375,1.6875 -2.09766,2.43359 3.07812,-1.0625 6.0625,-2.26562 8.91016,-3.61328 16.41406,-7.75781 24.15625,-33.2539 12.99609,-48.82422"
       id="path100" />
  </g>
</svg>
