<?xml version="1.0" encoding="UTF-8"?>
<svg xmlns="http://www.w3.org/2000/svg" xmlns:xlink="http://www.w3.org/1999/xlink" width="800pt" height="232pt" viewBox="0 0 800 232" version="1.1">
<defs>
<clipPath id="clip1">
  <path d="M 781 175 L 799.925781 175 L 799.925781 198 L 781 198 Z M 781 175 "/>
</clipPath>
<clipPath id="clip2">
  <path d="M 0.0585938 1 L 231 1 L 231 232 L 0.0585938 232 Z M 0.0585938 1 "/>
</clipPath>
</defs>
<g id="surface1">
<path style=" stroke:none;fill-rule:nonzero;fill:rgb(6.278992%,5.741882%,5.058289%);fill-opacity:1;" d="M 317.039062 103.199219 C 314.875 101.398438 312.40625 99.816406 309.695312 98.496094 C 307.113281 97.238281 304.566406 96.015625 302.078125 94.839844 C 299.660156 93.65625 297.269531 92.511719 294.964844 91.4375 C 292.78125 90.421875 290.820312 89.316406 289.140625 88.15625 C 287.5625 87.0625 286.277344 85.832031 285.324219 84.5 C 284.488281 83.335938 284.121094 81.992188 284.191406 80.34375 C 284.230469 78.625 284.574219 77.164062 285.214844 75.992188 C 285.859375 74.8125 286.710938 73.882812 287.8125 73.144531 C 288.976562 72.371094 290.378906 71.785156 291.980469 71.410156 C 293.671875 71.015625 295.550781 70.8125 297.574219 70.8125 C 298.917969 70.8125 300.125 70.933594 301.15625 71.171875 C 302.199219 71.414062 303.140625 71.726562 303.945312 72.097656 C 304.746094 72.46875 305.476562 72.902344 306.105469 73.382812 C 306.664062 73.804688 307.191406 74.265625 307.679688 74.761719 L 310.964844 83.324219 L 320.148438 83.324219 L 320.148438 65.527344 L 319.132812 64.953125 C 318.011719 64.320312 316.652344 63.683594 315.097656 63.058594 C 313.535156 62.4375 311.769531 61.878906 309.84375 61.402344 C 307.925781 60.929688 305.84375 60.558594 303.652344 60.300781 C 301.453125 60.039062 299.175781 59.933594 296.777344 59.976562 C 294.632812 60.027344 292.421875 60.253906 290.207031 60.660156 C 287.980469 61.066406 285.78125 61.675781 283.679688 62.464844 C 281.558594 63.257812 279.527344 64.261719 277.644531 65.445312 C 275.710938 66.660156 273.992188 68.101562 272.535156 69.734375 C 271.046875 71.402344 269.84375 73.316406 268.964844 75.425781 C 268.074219 77.566406 267.597656 79.972656 267.546875 82.59375 C 267.496094 85.957031 268.144531 89.003906 269.46875 91.652344 C 270.75 94.21875 272.484375 96.554688 274.625 98.59375 C 276.710938 100.582031 279.132812 102.398438 281.820312 103.996094 C 284.4375 105.546875 287.148438 106.992188 289.855469 108.273438 C 292.289062 109.46875 294.714844 110.578125 297.070312 111.570312 C 299.28125 112.503906 301.273438 113.53125 302.992188 114.625 C 304.609375 115.65625 305.921875 116.820312 306.890625 118.085938 C 307.738281 119.195312 308.152344 120.519531 308.152344 122.132812 C 308.152344 124.070312 307.792969 125.734375 307.085938 127.078125 C 306.363281 128.445312 305.386719 129.542969 304.09375 130.433594 C 302.765625 131.355469 301.136719 132.03125 299.257812 132.453125 C 297.609375 132.820312 295.792969 133.007812 293.863281 133.007812 C 293.488281 133.007812 293.109375 133 292.707031 132.984375 C 291.230469 132.945312 289.863281 132.808594 288.648438 132.574219 C 287.457031 132.351562 286.324219 132.027344 285.28125 131.617188 C 284.242188 131.210938 283.207031 130.683594 282.203125 130.046875 C 281.308594 129.484375 280.394531 128.820312 279.476562 128.074219 L 276.542969 118.902344 L 267 118.902344 L 267 137.738281 L 268.03125 138.308594 C 271.640625 140.300781 275.652344 141.828125 279.957031 142.84375 C 284.234375 143.855469 288.574219 144.367188 292.855469 144.367188 C 297.160156 144.367188 301.257812 143.851562 305.035156 142.828125 C 308.875 141.789062 312.289062 140.203125 315.1875 138.109375 C 318.136719 135.980469 320.484375 133.289062 322.171875 130.113281 C 323.871094 126.917969 324.730469 123.175781 324.730469 118.988281 C 324.730469 115.464844 323.988281 112.363281 322.523438 109.769531 C 321.109375 107.265625 319.265625 105.054688 317.039062 103.199219 "/>
<path style=" stroke:none;fill-rule:nonzero;fill:rgb(6.278992%,5.741882%,5.058289%);fill-opacity:1;" d="M 378.085938 127.71875 C 377.808594 127.902344 377.230469 128.210938 376.070312 128.621094 C 375.039062 128.988281 373.898438 129.324219 372.671875 129.625 C 371.429688 129.929688 370.125 130.195312 368.789062 130.414062 C 365.714844 130.921875 363.222656 130.8125 362.011719 130.046875 C 361.402344 129.664062 360.871094 128.742188 360.472656 127.382812 C 359.976562 125.679688 359.65625 123.230469 359.527344 120.101562 C 359.390625 116.84375 359.324219 112.535156 359.324219 107.300781 L 359.324219 74.847656 L 382.292969 74.847656 L 382.292969 62.234375 L 359.324219 62.234375 L 359.324219 43.980469 L 348.84375 43.980469 L 348.578125 45.675781 C 348.496094 46.21875 348.296875 47.171875 347.992188 48.507812 C 347.679688 49.859375 347.308594 51.328125 346.882812 52.867188 C 346.457031 54.421875 346.003906 55.949219 345.539062 57.40625 C 345.082031 58.847656 344.699219 59.945312 344.417969 60.625 C 343.921875 61.753906 343.476562 62.328125 343.195312 62.613281 C 342.78125 63.027344 342.242188 63.378906 341.585938 63.664062 C 340.820312 64 339.820312 64.304688 338.605469 64.570312 C 337.238281 64.871094 335.53125 65.277344 333.527344 65.777344 L 332.011719 66.15625 L 332.011719 74.847656 L 342.472656 74.847656 C 342.46875 82.554688 342.457031 90.214844 342.4375 97.824219 C 342.414062 106.101562 342.402344 114.429688 342.402344 122.816406 C 342.402344 130.324219 343.910156 135.65625 347.015625 139.121094 C 350.132812 142.601562 354.519531 144.367188 360.058594 144.367188 C 361.691406 144.367188 363.597656 144.210938 365.714844 143.902344 C 367.824219 143.59375 369.960938 143.125 372.066406 142.511719 C 374.199219 141.890625 376.210938 141.109375 378.042969 140.191406 C 379.980469 139.222656 381.578125 138.0625 382.789062 136.75 L 383.601562 135.863281 L 380.230469 126.285156 L 378.085938 127.71875 "/>
<path style=" stroke:none;fill-rule:nonzero;fill:rgb(6.278992%,5.741882%,5.058289%);fill-opacity:1;" d="M 427.644531 132.710938 C 424.386719 132.632812 421.65625 131.761719 419.304688 130.050781 C 416.890625 128.300781 414.867188 125.945312 413.285156 123.054688 C 411.65625 120.074219 410.414062 116.589844 409.59375 112.695312 C 408.757812 108.753906 408.335938 104.589844 408.335938 100.328125 C 408.335938 95.5625 408.726562 91.257812 409.492188 87.535156 C 410.234375 83.925781 411.417969 80.84375 413.007812 78.371094 C 414.539062 75.996094 416.523438 74.171875 418.902344 72.953125 C 421.230469 71.757812 424.128906 71.152344 427.507812 71.152344 L 427.820312 71.15625 C 431.027344 71.234375 433.816406 72.035156 436.109375 73.53125 C 438.449219 75.058594 440.421875 77.1875 441.964844 79.863281 C 443.554688 82.621094 444.742188 85.925781 445.492188 89.679688 C 446.261719 93.523438 446.652344 97.726562 446.652344 102.171875 C 446.652344 107.3125 446.28125 111.917969 445.558594 115.859375 C 444.851562 119.679688 443.71875 122.902344 442.1875 125.441406 C 440.699219 127.90625 438.832031 129.710938 436.46875 130.960938 C 434.121094 132.207031 431.117188 132.796875 427.644531 132.710938 Z M 456.003906 72.195312 C 453.019531 68.390625 449.207031 65.355469 444.660156 63.179688 C 440.21875 61.054688 434.96875 59.976562 429.0625 59.976562 L 428.671875 59.976562 C 423.699219 60.027344 418.863281 60.996094 414.296875 62.859375 C 409.71875 64.730469 405.621094 67.453125 402.121094 70.953125 C 398.625 74.449219 395.777344 78.769531 393.660156 83.792969 C 391.539062 88.816406 390.417969 94.578125 390.324219 100.910156 C 390.230469 106.480469 390.835938 111.914062 392.125 117.050781 C 393.4375 122.265625 395.578125 126.945312 398.496094 130.964844 C 401.449219 135.03125 405.320312 138.316406 410 140.726562 C 414.6875 143.144531 420.398438 144.367188 426.980469 144.367188 C 432.171875 144.367188 437.109375 143.304688 441.660156 141.210938 C 446.195312 139.121094 450.210938 136.15625 453.589844 132.390625 C 456.957031 128.644531 459.660156 124.097656 461.632812 118.875 C 463.597656 113.664062 464.617188 107.84375 464.664062 101.574219 C 464.710938 95.894531 464.019531 90.484375 462.605469 85.496094 C 461.175781 80.4375 458.953125 75.960938 456.003906 72.195312 "/>
<path style=" stroke:none;fill-rule:nonzero;fill:rgb(6.278992%,5.741882%,5.058289%);fill-opacity:1;" d="M 524.476562 60.972656 C 523.234375 60.902344 521.828125 60.867188 520.296875 60.867188 C 518.003906 60.867188 515.546875 61.277344 512.992188 62.089844 C 510.519531 62.871094 508.105469 63.886719 505.820312 65.097656 C 503.53125 66.3125 501.4375 67.683594 499.59375 69.171875 C 499.359375 69.355469 499.132812 69.542969 498.914062 69.730469 L 498.914062 62.910156 L 493.820312 60.742188 L 473.65625 66.777344 L 473.65625 73.6875 L 483.363281 79.019531 L 483.363281 131.722656 L 472.289062 133.160156 L 472.289062 142.726562 L 520.105469 142.726562 L 520.105469 133.078125 L 500.625 131.4375 L 500.625 80.945312 C 502.347656 79.941406 504.226562 79.054688 506.226562 78.308594 C 508.5 77.464844 511.394531 77.035156 514.824219 77.035156 C 516.292969 77.035156 517.59375 77.097656 518.699219 77.226562 C 519.808594 77.355469 520.8125 77.515625 521.679688 77.703125 C 522.507812 77.886719 523.273438 78.113281 523.953125 78.371094 C 524.734375 78.671875 525.488281 78.957031 526.222656 79.230469 L 528.925781 80.242188 L 528.925781 61.941406 L 527.605469 61.464844 C 526.902344 61.210938 525.90625 61.054688 524.476562 60.972656 "/>
<path style=" stroke:none;fill-rule:nonzero;fill:rgb(6.278992%,5.741882%,5.058289%);fill-opacity:1;" d="M 547.984375 46.007812 C 548.964844 46.878906 550.109375 47.558594 551.386719 48.027344 C 552.648438 48.496094 553.964844 48.734375 555.292969 48.734375 C 556.808594 48.734375 558.320312 48.445312 559.777344 47.878906 C 561.222656 47.316406 562.527344 46.527344 563.65625 45.535156 C 564.808594 44.519531 565.753906 43.257812 566.460938 41.789062 C 567.179688 40.289062 567.546875 38.621094 567.546875 36.820312 C 567.546875 34.027344 566.6875 31.585938 564.996094 29.558594 C 563.214844 27.425781 560.476562 26.34375 556.863281 26.34375 C 555.375 26.34375 553.886719 26.648438 552.441406 27.25 C 551.015625 27.839844 549.726562 28.671875 548.597656 29.714844 C 547.46875 30.765625 546.53125 32.027344 545.8125 33.464844 C 545.058594 34.972656 544.679688 36.605469 544.679688 38.324219 C 544.679688 39.929688 544.980469 41.40625 545.578125 42.710938 C 546.171875 44.011719 546.980469 45.121094 547.984375 46.007812 "/>
<path style=" stroke:none;fill-rule:nonzero;fill:rgb(6.278992%,5.741882%,5.058289%);fill-opacity:1;" d="M 566.382812 62.933594 L 561.457031 60.742188 L 540.371094 66.757812 L 540.371094 73.710938 L 549.804688 78.699219 L 549.804688 131.714844 L 538.183594 133.148438 L 538.183594 142.726562 L 577.457031 142.726562 L 577.457031 133.160156 L 566.382812 131.722656 L 566.382812 62.933594 "/>
<path style=" stroke:none;fill-rule:nonzero;fill:rgb(6.278992%,5.741882%,5.058289%);fill-opacity:1;" d="M 649.71875 62.902344 L 646.179688 60.753906 L 624.253906 65.121094 L 624.253906 73.921875 L 632.800781 76.109375 L 632.800781 124.226562 C 632.386719 124.59375 631.769531 125.085938 630.855469 125.722656 C 629.675781 126.542969 628.269531 127.335938 626.675781 128.082031 C 625.066406 128.828125 623.304688 129.484375 621.429688 130.019531 C 619.640625 130.535156 617.789062 130.796875 615.933594 130.796875 C 613.21875 130.796875 611.003906 130.429688 609.355469 129.703125 C 607.804688 129.019531 606.621094 127.996094 605.734375 126.578125 C 604.792969 125.066406 604.128906 123.066406 603.761719 120.636719 C 603.367188 118.039062 603.167969 114.863281 603.167969 111.195312 L 603.167969 62.875 L 599.054688 60.761719 L 579.207031 65.007812 L 579.207031 73.390625 L 586.246094 75.441406 L 586.246094 109.234375 C 586.292969 113.992188 586.488281 118.460938 586.835938 122.507812 C 587.195312 126.757812 588.1875 130.511719 589.777344 133.664062 C 591.433594 136.953125 593.976562 139.5625 597.328125 141.417969 C 600.621094 143.238281 605.179688 144.164062 610.875 144.164062 C 615.265625 144.164062 619.808594 143.203125 624.386719 141.3125 C 627.722656 139.933594 630.976562 138.066406 634.097656 135.75 L 634.097656 137.171875 C 634.097656 139.882812 635.003906 141.929688 636.78125 143.253906 C 638.386719 144.445312 640.523438 145.050781 643.140625 145.050781 C 644.324219 145.050781 645.585938 144.953125 646.890625 144.757812 C 648.152344 144.566406 649.398438 144.324219 650.605469 144.042969 C 651.824219 143.753906 652.976562 143.425781 654.039062 143.066406 C 655.160156 142.683594 656.085938 142.292969 656.863281 141.875 L 657.921875 141.3125 L 657.921875 132.917969 L 649.71875 132.917969 L 649.71875 62.902344 "/>
<path style=" stroke:none;fill-rule:nonzero;fill:rgb(6.278992%,5.741882%,5.058289%);fill-opacity:1;" d="M 788.371094 131.714844 L 788.371094 95.542969 C 788.371094 89.570312 787.96875 84.367188 787.175781 80.070312 C 786.355469 75.625 784.964844 71.921875 783.039062 69.0625 C 781.046875 66.097656 778.371094 63.917969 775.09375 62.585938 C 772.25 61.429688 768.820312 60.84375 764.902344 60.84375 C 764.457031 60.84375 764.003906 60.851562 763.523438 60.867188 C 761.226562 60.964844 758.742188 61.300781 756.140625 61.867188 C 753.5625 62.433594 750.96875 63.179688 748.4375 64.09375 C 745.910156 65.007812 743.464844 66.0625 741.164062 67.238281 C 739.652344 68.007812 738.253906 68.8125 736.988281 69.632812 C 735.210938 66.617188 732.890625 64.398438 730.066406 63.015625 C 727.105469 61.570312 723.328125 60.835938 718.839844 60.835938 C 718.300781 60.835938 717.75 60.847656 717.183594 60.867188 C 714.726562 60.964844 712.121094 61.363281 709.445312 62.058594 C 706.804688 62.742188 704.191406 63.636719 701.671875 64.71875 C 699.15625 65.800781 696.761719 67.03125 694.554688 68.367188 C 693.699219 68.886719 692.886719 69.410156 692.121094 69.9375 L 692.121094 62.933594 L 687.183594 60.738281 L 666.863281 66.773438 L 666.863281 73.6875 L 676.570312 79.019531 L 676.570312 131.710938 L 667.273438 133.214844 L 667.273438 142.726562 L 704.015625 142.726562 L 704.015625 133.179688 L 693.820312 131.742188 C 693.785156 125.472656 693.789062 119.171875 693.832031 112.988281 C 693.875 106.125 693.898438 99.222656 693.898438 92.464844 L 693.898438 81.023438 C 696.894531 79.054688 699.785156 77.574219 702.511719 76.613281 C 705.484375 75.5625 708.140625 74.96875 710.367188 74.84375 C 713.527344 74.722656 716.109375 75.03125 718.003906 75.769531 C 719.773438 76.460938 721.125 77.574219 722.128906 79.175781 C 723.203125 80.882812 723.945312 83.171875 724.339844 85.976562 C 724.757812 88.972656 724.96875 92.628906 724.96875 96.839844 L 724.96875 131.683594 L 714.714844 133.1875 L 714.714844 142.726562 L 752.550781 142.726562 L 752.550781 133.160156 L 742.09375 131.792969 L 742.09375 94.859375 C 742.09375 91.800781 741.949219 88.800781 741.671875 85.949219 C 741.453125 83.683594 741.152344 81.589844 740.785156 79.691406 C 743.21875 78.394531 745.699219 77.320312 748.179688 76.484375 C 751.042969 75.523438 753.960938 74.972656 756.851562 74.84375 C 759.976562 74.722656 762.519531 75.078125 764.363281 75.902344 C 766.132812 76.691406 767.476562 77.910156 768.476562 79.628906 C 769.542969 81.460938 770.273438 83.878906 770.648438 86.804688 C 771.046875 89.921875 771.246094 93.664062 771.246094 97.933594 L 771.246094 131.765625 L 761.949219 133.203125 L 761.949219 142.726562 L 799.925781 142.726562 L 799.925781 133.148438 L 788.371094 131.714844 "/>
<path style=" stroke:none;fill-rule:nonzero;fill:rgb(6.278992%,5.741882%,5.058289%);fill-opacity:1;" d="M 279.394531 192.929688 C 279.320312 192.976562 279.164062 193.058594 278.855469 193.171875 C 278.578125 193.269531 278.28125 193.355469 277.953125 193.4375 C 277.621094 193.515625 277.277344 193.585938 276.925781 193.644531 C 276.097656 193.78125 275.4375 193.75 275.113281 193.542969 C 274.945312 193.4375 274.800781 193.1875 274.691406 192.824219 C 274.5625 192.371094 274.476562 191.722656 274.441406 190.890625 C 274.40625 190.027344 274.386719 188.890625 274.386719 187.503906 L 274.386719 178.894531 L 280.460938 178.894531 L 280.460938 175.617188 L 274.386719 175.617188 L 274.386719 170.789062 L 271.671875 170.789062 L 271.605469 171.214844 C 271.582031 171.363281 271.527344 171.613281 271.449219 171.964844 C 271.367188 172.324219 271.269531 172.710938 271.15625 173.117188 C 271.042969 173.527344 270.925781 173.929688 270.800781 174.320312 C 270.679688 174.699219 270.578125 174.988281 270.503906 175.175781 C 270.367188 175.476562 270.25 175.632812 270.171875 175.710938 C 270.0625 175.820312 269.914062 175.914062 269.738281 175.992188 C 269.535156 176.082031 269.269531 176.164062 268.945312 176.234375 C 268.585938 176.3125 268.140625 176.421875 267.601562 176.554688 L 267.222656 176.648438 L 267.222656 178.894531 L 269.988281 178.894531 C 269.988281 180.941406 269.984375 182.976562 269.980469 185 C 269.976562 187.1875 269.972656 189.390625 269.972656 191.609375 C 269.972656 193.585938 270.367188 194.988281 271.183594 195.898438 C 272.003906 196.8125 273.15625 197.277344 274.609375 197.277344 C 275.042969 197.277344 275.542969 197.234375 276.101562 197.15625 C 276.65625 197.074219 277.222656 196.949219 277.777344 196.789062 C 278.339844 196.625 278.867188 196.417969 279.355469 196.175781 C 279.863281 195.921875 280.285156 195.617188 280.601562 195.273438 L 280.804688 195.050781 L 279.929688 192.570312 L 279.394531 192.929688 "/>
<path style=" stroke:none;fill-rule:nonzero;fill:rgb(6.278992%,5.741882%,5.058289%);fill-opacity:1;" d="M 303.199219 185.375 C 303.214844 183.6875 303.132812 182.203125 302.960938 180.964844 C 302.785156 179.6875 302.449219 178.621094 301.96875 177.789062 C 301.464844 176.929688 300.769531 176.28125 299.898438 175.863281 C 299.050781 175.460938 297.960938 175.253906 296.664062 175.253906 C 296.148438 175.253906 295.570312 175.324219 294.941406 175.457031 C 294.324219 175.585938 293.683594 175.777344 293.035156 176.019531 C 292.394531 176.261719 291.742188 176.558594 291.101562 176.90625 C 290.765625 177.089844 290.441406 177.285156 290.132812 177.496094 L 290.207031 167.074219 L 288.9375 166.453125 L 282.644531 167.292969 L 282.644531 169.707031 L 285.734375 170.359375 L 285.734375 193.992188 L 283.023438 194.371094 L 283.023438 196.84375 L 292.863281 196.84375 L 292.863281 194.375 L 290.203125 193.992188 L 290.203125 180.175781 C 290.53125 179.960938 290.867188 179.777344 291.210938 179.632812 C 291.640625 179.449219 292.070312 179.304688 292.492188 179.195312 C 292.921875 179.085938 293.351562 179.007812 293.773438 178.964844 C 295.214844 178.808594 296.378906 178.921875 297.0625 179.359375 C 297.542969 179.664062 297.894531 180.113281 298.140625 180.738281 C 298.402344 181.402344 298.570312 182.25 298.632812 183.25 C 298.699219 184.304688 298.730469 185.535156 298.730469 186.90625 L 298.730469 193.984375 L 295.695312 194.367188 L 295.695312 196.84375 L 305.914062 196.84375 L 305.914062 194.371094 L 303.199219 193.992188 L 303.199219 185.375 "/>
<path style=" stroke:none;fill-rule:nonzero;fill:rgb(6.278992%,5.741882%,5.058289%);fill-opacity:1;" d="M 321.371094 182.519531 C 321.382812 182.96875 321.382812 183.414062 321.367188 183.859375 L 312.507812 183.859375 C 312.613281 182.898438 312.804688 182.0625 313.074219 181.367188 C 313.386719 180.554688 313.777344 179.886719 314.234375 179.378906 C 314.679688 178.886719 315.191406 178.519531 315.746094 178.296875 C 316.753906 177.894531 317.925781 177.878906 318.753906 178.09375 C 319.097656 178.179688 319.40625 178.3125 319.679688 178.492188 C 320.066406 178.734375 320.378906 179.058594 320.609375 179.449219 C 320.851562 179.867188 321.039062 180.339844 321.160156 180.851562 C 321.28125 181.375 321.355469 181.9375 321.371094 182.519531 Z M 325.414062 179.667969 C 325.050781 178.671875 324.535156 177.8125 323.890625 177.113281 C 323.238281 176.410156 322.441406 175.871094 321.519531 175.515625 C 320.664062 175.183594 319.710938 175.019531 318.675781 175.019531 L 318.453125 175.019531 C 316.910156 175.058594 315.476562 175.367188 314.191406 175.941406 C 312.90625 176.515625 311.789062 177.3125 310.875 178.308594 C 309.960938 179.304688 309.238281 180.496094 308.730469 181.851562 C 308.226562 183.203125 307.96875 184.699219 307.96875 186.292969 C 307.96875 187.929688 308.179688 189.433594 308.597656 190.761719 C 309.019531 192.109375 309.644531 193.28125 310.453125 194.234375 C 311.269531 195.199219 312.289062 195.957031 313.480469 196.484375 C 314.664062 197.011719 316.039062 197.277344 317.558594 197.277344 C 318.265625 197.277344 318.996094 197.230469 319.738281 197.136719 C 320.476562 197.046875 321.199219 196.90625 321.882812 196.726562 C 322.5625 196.546875 323.207031 196.320312 323.792969 196.058594 C 324.398438 195.785156 324.898438 195.472656 325.285156 195.125 L 325.554688 194.882812 L 324.519531 192.507812 L 324.035156 192.78125 C 323.8125 192.910156 323.507812 193.035156 323.128906 193.15625 C 322.730469 193.285156 322.289062 193.398438 321.820312 193.496094 C 321.355469 193.59375 320.863281 193.671875 320.363281 193.722656 C 319.058594 193.859375 317.929688 193.824219 316.699219 193.484375 C 315.964844 193.28125 315.285156 192.921875 314.671875 192.410156 C 314.0625 191.898438 313.542969 191.191406 313.132812 190.3125 C 312.734375 189.460938 312.503906 188.363281 312.4375 186.992188 L 325.75 186.992188 L 325.808594 186.5625 C 325.871094 186.121094 325.929688 185.621094 325.984375 185.058594 C 326.039062 184.484375 326.054688 183.800781 326.03125 183.019531 C 325.980469 181.78125 325.773438 180.652344 325.414062 179.667969 "/>
<path style=" stroke:none;fill-rule:nonzero;fill:rgb(6.278992%,5.741882%,5.058289%);fill-opacity:1;" d="M 350.570312 177.421875 L 350.652344 177.917969 C 351.503906 177.941406 352.246094 178.152344 352.859375 178.550781 C 353.480469 178.957031 354.003906 179.523438 354.414062 180.234375 C 354.835938 180.96875 355.152344 181.84375 355.351562 182.839844 C 355.554688 183.855469 355.660156 184.972656 355.660156 186.148438 C 355.660156 187.511719 355.5625 188.730469 355.367188 189.773438 C 355.183594 190.785156 354.882812 191.644531 354.472656 192.316406 C 354.085938 192.964844 353.570312 193.460938 352.953125 193.785156 C 352.363281 194.097656 351.632812 194.253906 350.777344 194.253906 L 350.601562 194.253906 C 349.734375 194.230469 349.007812 194 348.382812 193.542969 C 347.738281 193.078125 347.203125 192.453125 346.78125 191.683594 C 346.351562 190.894531 346.019531 189.972656 345.800781 188.9375 C 345.582031 187.894531 345.46875 186.789062 345.46875 185.660156 C 345.46875 184.398438 345.574219 183.261719 345.777344 182.273438 C 345.972656 181.3125 346.285156 180.496094 346.710938 179.839844 C 347.117188 179.207031 347.644531 178.722656 348.28125 178.394531 C 348.898438 178.078125 349.671875 177.917969 350.570312 177.917969 Z M 358.078125 178.238281 C 357.296875 177.238281 356.289062 176.4375 355.089844 175.863281 C 353.921875 175.304688 352.535156 175.019531 350.976562 175.019531 L 350.875 175.019531 C 349.566406 175.03125 348.289062 175.289062 347.085938 175.78125 C 345.878906 176.273438 344.796875 176.992188 343.875 177.914062 C 342.953125 178.835938 342.203125 179.976562 341.644531 181.300781 C 341.085938 182.625 340.789062 184.144531 340.765625 185.816406 C 340.738281 187.285156 340.898438 188.71875 341.238281 190.074219 C 341.585938 191.453125 342.152344 192.6875 342.921875 193.746094 C 343.699219 194.816406 344.71875 195.683594 345.953125 196.316406 C 347.1875 196.953125 348.691406 197.277344 350.429688 197.277344 C 351.796875 197.277344 353.097656 196.996094 354.296875 196.445312 C 355.492188 195.894531 356.550781 195.113281 357.445312 194.121094 C 358.332031 193.132812 359.042969 191.933594 359.5625 190.554688 C 360.082031 189.179688 360.351562 187.644531 360.363281 185.992188 C 360.378906 184.492188 360.195312 183.0625 359.820312 181.746094 C 359.441406 180.410156 358.855469 179.230469 358.078125 178.238281 "/>
<path style=" stroke:none;fill-rule:nonzero;fill:rgb(6.278992%,5.741882%,5.058289%);fill-opacity:1;" d="M 382.6875 184.234375 C 382.6875 182.691406 382.582031 181.347656 382.371094 180.234375 C 382.15625 179.089844 381.789062 178.128906 381.28125 177.382812 C 380.757812 176.609375 380.0625 176.042969 379.214844 175.699219 C 378.394531 175.367188 377.414062 175.214844 376.1875 175.257812 C 375.539062 175.28125 374.851562 175.386719 374.128906 175.570312 C 373.421875 175.75 372.722656 175.984375 372.050781 176.269531 C 371.382812 176.558594 370.742188 176.878906 370.148438 177.230469 C 369.890625 177.386719 369.648438 177.539062 369.421875 177.695312 L 369.421875 175.792969 L 368.144531 175.222656 L 362.800781 176.808594 L 362.800781 178.601562 L 365.367188 180.011719 L 365.367188 194.015625 L 362.90625 194.375 L 362.90625 196.84375 L 372.566406 196.84375 L 372.566406 194.371094 L 369.871094 193.992188 L 369.871094 180.539062 C 370.671875 180.015625 371.4375 179.617188 372.160156 179.363281 C 372.945312 179.085938 373.691406 178.925781 374.382812 178.894531 C 375.214844 178.863281 375.890625 178.957031 376.382812 179.175781 C 376.855469 179.386719 377.214844 179.710938 377.484375 180.164062 C 377.765625 180.648438 377.960938 181.277344 378.058594 182.039062 C 378.164062 182.84375 378.21875 183.796875 378.21875 184.863281 L 378.21875 193.992188 L 375.488281 194.371094 L 375.488281 196.84375 L 385.597656 196.84375 L 385.597656 194.363281 L 382.6875 194.003906 L 382.6875 184.234375 "/>
<path style=" stroke:none;fill-rule:nonzero;fill:rgb(6.278992%,5.741882%,5.058289%);fill-opacity:1;" d="M 395.160156 167.097656 L 394.039062 166.453125 L 387.78125 167.292969 L 387.78125 169.703125 L 390.671875 170.351562 L 390.671875 193.984375 L 387.601562 194.363281 L 387.601562 196.84375 L 398.378906 196.84375 L 398.378906 194.363281 L 395.160156 193.984375 L 395.160156 167.097656 "/>
<path style=" stroke:none;fill-rule:nonzero;fill:rgb(6.278992%,5.741882%,5.058289%);fill-opacity:1;" d="M 402.871094 171.277344 C 403.128906 171.503906 403.425781 171.683594 403.761719 171.804688 C 404.09375 171.925781 404.4375 171.988281 404.785156 171.988281 C 405.183594 171.988281 405.578125 171.914062 405.960938 171.765625 C 406.339844 171.617188 406.679688 171.410156 406.976562 171.148438 C 407.277344 170.882812 407.527344 170.554688 407.710938 170.171875 C 407.898438 169.777344 407.996094 169.339844 407.996094 168.867188 C 407.996094 168.136719 407.769531 167.496094 407.328125 166.964844 C 406.863281 166.410156 406.144531 166.128906 405.199219 166.128906 C 404.808594 166.128906 404.421875 166.207031 404.039062 166.363281 C 403.667969 166.519531 403.328125 166.738281 403.035156 167.011719 C 402.738281 167.285156 402.492188 167.617188 402.304688 167.992188 C 402.105469 168.386719 402.007812 168.816406 402.007812 169.265625 C 402.007812 169.6875 402.085938 170.070312 402.242188 170.414062 C 402.394531 170.753906 402.609375 171.042969 402.871094 171.277344 "/>
<path style=" stroke:none;fill-rule:nonzero;fill:rgb(6.278992%,5.741882%,5.058289%);fill-opacity:1;" d="M 407.6875 175.792969 L 406.410156 175.226562 L 400.867188 176.804688 L 400.867188 178.605469 L 403.363281 179.925781 L 403.363281 193.984375 L 400.289062 194.363281 L 400.289062 196.84375 L 410.617188 196.84375 L 410.617188 194.367188 L 407.6875 193.988281 L 407.6875 175.792969 "/>
<path style=" stroke:none;fill-rule:nonzero;fill:rgb(6.278992%,5.741882%,5.058289%);fill-opacity:1;" d="M 432.886719 184.234375 C 432.886719 182.691406 432.777344 181.347656 432.570312 180.234375 C 432.351562 179.089844 431.988281 178.128906 431.480469 177.382812 C 430.957031 176.609375 430.257812 176.042969 429.410156 175.699219 C 428.589844 175.367188 427.613281 175.214844 426.382812 175.257812 C 425.738281 175.28125 425.046875 175.386719 424.328125 175.570312 C 423.617188 175.75 422.917969 175.984375 422.246094 176.269531 C 421.578125 176.558594 420.9375 176.878906 420.34375 177.230469 C 420.085938 177.386719 419.84375 177.539062 419.617188 177.695312 L 419.617188 175.792969 L 418.339844 175.222656 L 412.996094 176.808594 L 412.996094 178.601562 L 415.5625 180.011719 L 415.5625 194.015625 L 413.105469 194.375 L 413.105469 196.84375 L 422.761719 196.84375 L 422.761719 194.371094 L 420.070312 193.992188 L 420.070312 180.539062 C 420.867188 180.015625 421.636719 179.617188 422.359375 179.363281 C 423.140625 179.085938 423.890625 178.925781 424.578125 178.894531 C 425.414062 178.863281 426.085938 178.957031 426.578125 179.175781 C 427.050781 179.386719 427.410156 179.710938 427.679688 180.164062 C 427.964844 180.648438 428.15625 181.277344 428.257812 182.039062 C 428.363281 182.84375 428.414062 183.796875 428.414062 184.863281 L 428.414062 193.992188 L 425.683594 194.371094 L 425.683594 196.84375 L 435.796875 196.84375 L 435.796875 194.363281 L 432.886719 194.003906 L 432.886719 184.234375 "/>
<path style=" stroke:none;fill-rule:nonzero;fill:rgb(6.278992%,5.741882%,5.058289%);fill-opacity:1;" d="M 451.054688 182.519531 C 451.070312 182.96875 451.066406 183.414062 451.050781 183.859375 L 442.191406 183.859375 C 442.300781 182.898438 442.488281 182.0625 442.757812 181.367188 C 443.070312 180.554688 443.460938 179.886719 443.917969 179.378906 C 444.363281 178.886719 444.875 178.519531 445.433594 178.296875 C 446.4375 177.894531 447.613281 177.878906 448.4375 178.09375 C 448.78125 178.179688 449.089844 178.3125 449.363281 178.492188 C 449.75 178.734375 450.0625 179.058594 450.292969 179.449219 C 450.535156 179.867188 450.722656 180.339844 450.84375 180.851562 C 450.96875 181.375 451.039062 181.9375 451.054688 182.519531 Z M 455.097656 179.667969 C 454.734375 178.671875 454.222656 177.8125 453.574219 177.113281 C 452.925781 176.410156 452.125 175.871094 451.203125 175.515625 C 450.351562 175.183594 449.394531 175.019531 448.359375 175.019531 L 448.136719 175.019531 C 446.59375 175.058594 445.160156 175.367188 443.878906 175.941406 C 442.589844 176.515625 441.476562 177.3125 440.558594 178.308594 C 439.644531 179.304688 438.925781 180.496094 438.414062 181.851562 C 437.910156 183.203125 437.652344 184.699219 437.652344 186.292969 C 437.652344 187.929688 437.863281 189.433594 438.28125 190.761719 C 438.703125 192.109375 439.328125 193.28125 440.140625 194.234375 C 440.953125 195.199219 441.972656 195.957031 443.164062 196.484375 C 444.351562 197.011719 445.722656 197.277344 447.246094 197.277344 C 447.949219 197.277344 448.683594 197.230469 449.421875 197.136719 C 450.160156 197.046875 450.882812 196.90625 451.566406 196.726562 C 452.25 196.546875 452.894531 196.320312 453.476562 196.058594 C 454.082031 195.785156 454.585938 195.472656 454.972656 195.125 L 455.238281 194.882812 L 454.203125 192.507812 L 453.722656 192.78125 C 453.5 192.910156 453.195312 193.035156 452.8125 193.15625 C 452.414062 193.285156 451.976562 193.398438 451.507812 193.496094 C 451.039062 193.59375 450.550781 193.671875 450.046875 193.722656 C 448.742188 193.859375 447.613281 193.824219 446.382812 193.484375 C 445.648438 193.28125 444.96875 192.921875 444.355469 192.410156 C 443.746094 191.898438 443.230469 191.191406 442.816406 190.3125 C 442.417969 189.460938 442.1875 188.363281 442.121094 186.992188 L 455.433594 186.992188 L 455.492188 186.5625 C 455.554688 186.121094 455.613281 185.621094 455.667969 185.058594 C 455.726562 184.484375 455.742188 183.800781 455.714844 183.019531 C 455.664062 181.78125 455.457031 180.652344 455.097656 179.667969 "/>
<path style=" stroke:none;fill-rule:nonzero;fill:rgb(6.278992%,5.741882%,5.058289%);fill-opacity:1;" d="M 484.808594 186.441406 C 484.238281 185.96875 483.585938 185.550781 482.871094 185.203125 C 482.1875 184.871094 481.515625 184.546875 480.855469 184.234375 C 480.214844 183.921875 479.589844 183.621094 478.976562 183.335938 C 478.394531 183.066406 477.875 182.773438 477.433594 182.464844 C 477.011719 182.175781 476.671875 181.847656 476.414062 181.492188 C 476.191406 181.179688 476.09375 180.816406 476.113281 180.375 C 476.121094 179.917969 476.214844 179.527344 476.386719 179.210938 C 476.558594 178.894531 476.785156 178.644531 477.082031 178.449219 C 477.394531 178.242188 477.765625 178.085938 478.191406 177.984375 C 478.945312 177.8125 479.945312 177.765625 480.632812 177.921875 C 480.910156 177.988281 481.160156 178.070312 481.375 178.171875 C 481.589844 178.269531 481.785156 178.386719 481.953125 178.511719 C 482.101562 178.628906 482.246094 178.75 482.375 178.882812 L 483.238281 181.136719 L 485.621094 181.136719 L 485.621094 176.476562 L 485.367188 176.332031 C 485.070312 176.164062 484.710938 175.996094 484.300781 175.832031 C 483.890625 175.667969 483.425781 175.519531 482.917969 175.394531 C 482.414062 175.273438 481.863281 175.175781 481.285156 175.105469 C 480.789062 175.046875 480.273438 175.019531 479.75 175.019531 L 479.46875 175.019531 C 478.90625 175.03125 478.324219 175.09375 477.738281 175.199219 C 477.148438 175.308594 476.570312 175.46875 476.015625 175.675781 C 475.457031 175.886719 474.921875 176.148438 474.425781 176.460938 C 473.914062 176.78125 473.464844 177.160156 473.078125 177.589844 C 472.6875 178.027344 472.371094 178.53125 472.140625 179.085938 C 471.90625 179.648438 471.78125 180.28125 471.769531 180.972656 C 471.753906 181.855469 471.925781 182.660156 472.273438 183.355469 C 472.609375 184.027344 473.066406 184.644531 473.632812 185.183594 C 474.179688 185.707031 474.820312 186.1875 475.527344 186.605469 C 476.214844 187.015625 476.933594 187.394531 477.652344 187.734375 C 478.300781 188.054688 478.933594 188.34375 479.558594 188.605469 C 480.144531 188.855469 480.671875 189.128906 481.128906 189.417969 C 481.558594 189.691406 481.90625 190.003906 482.164062 190.339844 C 482.394531 190.636719 482.503906 190.992188 482.503906 191.425781 C 482.503906 191.945312 482.410156 192.390625 482.21875 192.746094 C 482.027344 193.113281 481.765625 193.40625 481.421875 193.644531 C 481.0625 193.890625 480.632812 194.070312 480.132812 194.183594 C 479.609375 194.300781 479.046875 194.347656 478.390625 194.324219 C 477.996094 194.3125 477.636719 194.277344 477.3125 194.21875 C 476.996094 194.15625 476.695312 194.070312 476.417969 193.960938 C 476.140625 193.855469 475.863281 193.714844 475.597656 193.542969 C 475.359375 193.394531 475.113281 193.214844 474.867188 193.015625 L 474.097656 190.601562 L 471.621094 190.601562 L 471.621094 195.535156 L 471.882812 195.679688 C 472.835938 196.203125 473.890625 196.605469 475.027344 196.875 C 476.15625 197.140625 477.300781 197.277344 478.433594 197.277344 C 479.566406 197.277344 480.648438 197.140625 481.644531 196.871094 C 482.65625 196.597656 483.558594 196.179688 484.320312 195.628906 C 485.097656 195.066406 485.714844 194.359375 486.15625 193.523438 C 486.605469 192.683594 486.832031 191.699219 486.832031 190.597656 C 486.832031 189.667969 486.636719 188.855469 486.253906 188.171875 C 485.878906 187.511719 485.394531 186.933594 484.808594 186.441406 "/>
<path style=" stroke:none;fill-rule:nonzero;fill:rgb(6.278992%,5.741882%,5.058289%);fill-opacity:1;" d="M 500.984375 192.929688 C 500.910156 192.976562 500.757812 193.058594 500.445312 193.171875 C 500.171875 193.269531 499.871094 193.355469 499.542969 193.4375 C 499.214844 193.515625 498.867188 193.585938 498.515625 193.644531 C 497.6875 193.78125 497.027344 193.75 496.703125 193.542969 C 496.535156 193.4375 496.390625 193.1875 496.28125 192.824219 C 496.152344 192.371094 496.066406 191.722656 496.03125 190.890625 C 495.996094 190.027344 495.976562 188.890625 495.976562 187.503906 L 495.976562 178.894531 L 502.050781 178.894531 L 502.050781 175.617188 L 495.976562 175.617188 L 495.976562 170.789062 L 493.261719 170.789062 L 493.195312 171.214844 C 493.171875 171.363281 493.117188 171.613281 493.039062 171.964844 C 492.957031 172.324219 492.859375 172.710938 492.746094 173.117188 C 492.632812 173.527344 492.515625 173.929688 492.390625 174.320312 C 492.269531 174.699219 492.167969 174.988281 492.09375 175.175781 C 491.960938 175.476562 491.839844 175.632812 491.761719 175.710938 C 491.652344 175.820312 491.503906 175.914062 491.328125 175.992188 C 491.125 176.082031 490.859375 176.164062 490.535156 176.234375 C 490.175781 176.3125 489.730469 176.421875 489.191406 176.554688 L 488.8125 176.648438 L 488.8125 178.894531 L 491.578125 178.894531 C 491.578125 180.941406 491.578125 182.976562 491.570312 185 C 491.566406 187.1875 491.5625 189.390625 491.5625 191.609375 C 491.5625 193.585938 491.957031 194.988281 492.773438 195.898438 C 493.59375 196.8125 494.746094 197.277344 496.199219 197.277344 C 496.632812 197.277344 497.136719 197.234375 497.691406 197.15625 C 498.246094 197.074219 498.8125 196.949219 499.367188 196.789062 C 499.929688 196.625 500.460938 196.417969 500.945312 196.175781 C 501.453125 195.921875 501.875 195.617188 502.191406 195.273438 L 502.394531 195.050781 L 501.519531 192.570312 L 500.984375 192.929688 "/>
<path style=" stroke:none;fill-rule:nonzero;fill:rgb(6.278992%,5.741882%,5.058289%);fill-opacity:1;" d="M 514.039062 177.421875 L 514.121094 177.917969 C 514.976562 177.941406 515.71875 178.152344 516.328125 178.550781 C 516.949219 178.957031 517.476562 179.523438 517.886719 180.234375 C 518.308594 180.96875 518.621094 181.847656 518.820312 182.839844 C 519.023438 183.863281 519.128906 184.976562 519.128906 186.148438 C 519.128906 187.511719 519.03125 188.730469 518.839844 189.773438 C 518.652344 190.785156 518.351562 191.644531 517.941406 192.316406 C 517.554688 192.964844 517.042969 193.460938 516.421875 193.785156 C 515.835938 194.097656 515.105469 194.253906 514.246094 194.253906 L 514.074219 194.253906 C 513.203125 194.230469 512.480469 194 511.851562 193.542969 C 511.210938 193.078125 510.671875 192.453125 510.253906 191.683594 C 509.820312 190.894531 509.488281 189.96875 509.273438 188.9375 C 509.050781 187.894531 508.9375 186.789062 508.9375 185.660156 C 508.9375 184.398438 509.042969 183.261719 509.246094 182.273438 C 509.441406 181.3125 509.757812 180.496094 510.179688 179.839844 C 510.585938 179.207031 511.113281 178.722656 511.75 178.394531 C 512.367188 178.078125 513.140625 177.917969 514.039062 177.917969 Z M 521.550781 178.238281 C 520.765625 177.238281 519.757812 176.4375 518.558594 175.863281 C 517.390625 175.304688 516.003906 175.019531 514.445312 175.019531 L 514.347656 175.019531 C 513.035156 175.03125 511.761719 175.289062 510.554688 175.78125 C 509.347656 176.273438 508.269531 176.992188 507.34375 177.914062 C 506.421875 178.835938 505.671875 179.976562 505.113281 181.300781 C 504.554688 182.625 504.257812 184.144531 504.234375 185.816406 C 504.210938 187.285156 504.367188 188.71875 504.710938 190.074219 C 505.054688 191.453125 505.621094 192.6875 506.390625 193.746094 C 507.167969 194.816406 508.1875 195.683594 509.421875 196.316406 C 510.65625 196.953125 512.164062 197.277344 513.898438 197.277344 C 515.269531 197.277344 516.570312 196.996094 517.769531 196.445312 C 518.964844 195.894531 520.019531 195.113281 520.914062 194.121094 C 521.800781 193.132812 522.515625 191.933594 523.03125 190.554688 C 523.554688 189.179688 523.820312 187.644531 523.835938 185.988281 C 523.847656 184.488281 523.664062 183.058594 523.289062 181.746094 C 522.914062 180.410156 522.328125 179.230469 521.550781 178.238281 "/>
<path style=" stroke:none;fill-rule:nonzero;fill:rgb(6.278992%,5.741882%,5.058289%);fill-opacity:1;" d="M 539.527344 175.28125 C 538.714844 175.238281 537.628906 175.21875 536.503906 175.578125 C 535.851562 175.785156 535.214844 176.050781 534.609375 176.371094 C 534.007812 176.691406 533.453125 177.054688 532.96875 177.445312 C 532.890625 177.507812 532.816406 177.570312 532.742188 177.632812 L 532.742188 175.785156 L 531.421875 175.226562 L 526.121094 176.8125 L 526.121094 178.601562 L 528.6875 180.011719 L 528.6875 193.988281 L 525.761719 194.367188 L 525.761719 196.84375 L 538.347656 196.84375 L 538.347656 194.347656 L 533.195312 193.914062 L 533.195312 180.519531 C 533.65625 180.25 534.160156 180.011719 534.695312 179.8125 C 535.300781 179.585938 536.066406 179.472656 536.980469 179.472656 C 537.367188 179.472656 537.710938 179.488281 538.007812 179.523438 C 538.300781 179.558594 538.566406 179.601562 538.796875 179.652344 C 539.019531 179.699219 539.222656 179.757812 539.402344 179.828125 L 540.679688 180.308594 L 540.679688 175.53125 L 540.351562 175.410156 C 540.167969 175.34375 539.90625 175.304688 539.527344 175.28125 "/>
<path style=" stroke:none;fill-rule:nonzero;fill:rgb(6.278992%,5.741882%,5.058289%);fill-opacity:1;" d="M 556.910156 178.480469 L 559.578125 178.773438 L 556.078125 190.386719 L 555.476562 192.503906 L 550.726562 178.804688 L 553.15625 178.46875 L 553.15625 175.617188 L 543.785156 175.617188 L 543.785156 178.453125 L 545.808594 178.804688 L 553.078125 196.84375 L 553.511719 196.84375 C 553.179688 197.847656 552.816406 198.6875 552.433594 199.34375 C 551.972656 200.125 551.5 200.730469 551.023438 201.144531 C 550.5625 201.550781 550.109375 201.820312 549.671875 201.957031 C 548.976562 202.171875 548.464844 202.214844 547.742188 202.121094 C 547.5 202.089844 547.285156 202.046875 547.101562 201.992188 L 546.460938 201.804688 L 546.460938 205.632812 L 546.664062 205.785156 C 546.757812 205.851562 546.878906 205.910156 547.039062 205.964844 C 547.167969 206.007812 547.316406 206.042969 547.480469 206.074219 C 547.636719 206.101562 547.789062 206.121094 547.953125 206.132812 C 548.113281 206.144531 548.257812 206.152344 548.390625 206.152344 C 549.007812 206.152344 549.582031 206.085938 550.097656 205.957031 C 550.90625 205.761719 551.652344 205.414062 552.3125 204.925781 C 552.957031 204.445312 553.566406 203.828125 554.121094 203.089844 C 554.667969 202.363281 555.191406 201.496094 555.679688 200.503906 C 556.164062 199.527344 556.644531 198.421875 557.117188 197.214844 C 557.214844 196.96875 557.332031 196.660156 557.464844 196.289062 L 557.988281 194.832031 C 558.207031 194.230469 558.476562 193.476562 558.796875 192.570312 C 559.113281 191.664062 559.5 190.5625 559.953125 189.257812 C 560.402344 187.957031 560.933594 186.421875 561.542969 184.648438 C 562.125 182.949219 562.800781 180.992188 563.566406 178.773438 L 565.71875 178.464844 L 565.71875 175.617188 L 556.910156 175.617188 L 556.910156 178.480469 "/>
<path style=" stroke:none;fill-rule:nonzero;fill:rgb(6.278992%,5.741882%,5.058289%);fill-opacity:1;" d="M 580.585938 192.929688 C 580.511719 192.976562 580.355469 193.058594 580.046875 193.171875 C 579.769531 193.269531 579.46875 193.355469 579.144531 193.4375 C 578.8125 193.515625 578.46875 193.585938 578.117188 193.644531 C 577.273438 193.78125 576.632812 193.75 576.304688 193.542969 C 576.136719 193.4375 575.988281 193.1875 575.882812 192.824219 C 575.75 192.371094 575.667969 191.722656 575.632812 190.890625 C 575.597656 190.035156 575.578125 188.898438 575.578125 187.503906 L 575.578125 178.894531 L 581.652344 178.894531 L 581.652344 175.617188 L 575.578125 175.617188 L 575.578125 170.789062 L 572.855469 170.789062 L 572.792969 171.21875 C 572.769531 171.367188 572.71875 171.613281 572.640625 171.964844 C 572.554688 172.324219 572.460938 172.710938 572.34375 173.117188 C 572.230469 173.527344 572.113281 173.929688 571.988281 174.320312 C 571.867188 174.699219 571.769531 174.988281 571.691406 175.175781 C 571.558594 175.476562 571.4375 175.632812 571.359375 175.710938 C 571.25 175.820312 571.105469 175.914062 570.929688 175.992188 C 570.726562 176.082031 570.457031 176.164062 570.136719 176.234375 C 569.773438 176.3125 569.328125 176.421875 568.792969 176.554688 L 568.414062 176.648438 L 568.414062 178.894531 L 571.179688 178.894531 C 571.179688 180.941406 571.175781 182.976562 571.171875 185 C 571.164062 187.1875 571.160156 189.390625 571.160156 191.609375 C 571.160156 193.585938 571.558594 194.988281 572.375 195.898438 C 573.191406 196.8125 574.347656 197.277344 575.800781 197.277344 C 576.230469 197.277344 576.734375 197.234375 577.292969 197.15625 C 577.847656 197.074219 578.414062 196.949219 578.96875 196.789062 C 579.527344 196.625 580.058594 196.417969 580.542969 196.175781 C 581.054688 195.921875 581.472656 195.617188 581.789062 195.273438 L 581.992188 195.050781 L 581.121094 192.570312 L 580.585938 192.929688 "/>
<path style=" stroke:none;fill-rule:nonzero;fill:rgb(6.278992%,5.741882%,5.058289%);fill-opacity:1;" d="M 597.183594 182.519531 C 597.195312 182.960938 597.191406 183.410156 597.179688 183.859375 L 588.316406 183.859375 C 588.425781 182.898438 588.613281 182.0625 588.886719 181.367188 C 589.195312 180.554688 589.589844 179.886719 590.046875 179.378906 C 590.492188 178.886719 591 178.519531 591.558594 178.296875 C 592.5625 177.894531 593.738281 177.878906 594.566406 178.09375 C 594.90625 178.179688 595.21875 178.3125 595.488281 178.492188 C 595.882812 178.738281 596.183594 179.054688 596.417969 179.449219 C 596.664062 179.871094 596.847656 180.339844 596.96875 180.847656 C 597.09375 181.378906 597.164062 181.941406 597.183594 182.519531 Z M 601.226562 179.667969 C 600.859375 178.671875 600.347656 177.8125 599.703125 177.113281 C 599.050781 176.410156 598.253906 175.871094 597.328125 175.515625 C 596.476562 175.183594 595.519531 175.019531 594.488281 175.019531 L 594.261719 175.019531 C 592.722656 175.058594 591.289062 175.367188 590.003906 175.941406 C 588.71875 176.515625 587.601562 177.3125 586.683594 178.308594 C 585.769531 179.304688 585.050781 180.496094 584.542969 181.851562 C 584.035156 183.203125 583.777344 184.699219 583.777344 186.292969 C 583.777344 187.929688 583.988281 189.433594 584.40625 190.761719 C 584.828125 192.109375 585.453125 193.277344 586.265625 194.234375 C 587.078125 195.199219 588.097656 195.957031 589.289062 196.484375 C 590.476562 197.011719 591.847656 197.277344 593.371094 197.277344 C 594.074219 197.277344 594.808594 197.230469 595.546875 197.136719 C 596.289062 197.046875 597.011719 196.90625 597.691406 196.726562 C 598.378906 196.546875 599.019531 196.320312 599.605469 196.058594 C 600.210938 195.785156 600.710938 195.472656 601.097656 195.125 L 601.367188 194.882812 L 600.332031 192.507812 L 599.847656 192.78125 C 599.625 192.910156 599.320312 193.035156 598.941406 193.15625 C 598.539062 193.28125 598.101562 193.398438 597.632812 193.496094 C 597.164062 193.59375 596.675781 193.671875 596.175781 193.722656 C 594.863281 193.859375 593.738281 193.824219 592.507812 193.484375 C 591.777344 193.28125 591.09375 192.921875 590.484375 192.410156 C 589.871094 191.898438 589.355469 191.191406 588.941406 190.3125 C 588.542969 189.460938 588.3125 188.363281 588.25 186.992188 L 601.558594 186.992188 L 601.621094 186.5625 C 601.683594 186.121094 601.738281 185.621094 601.796875 185.058594 C 601.851562 184.488281 601.867188 183.804688 601.84375 183.019531 C 601.792969 181.78125 601.585938 180.65625 601.226562 179.667969 "/>
<path style=" stroke:none;fill-rule:nonzero;fill:rgb(6.278992%,5.741882%,5.058289%);fill-opacity:1;" d="M 612.183594 167.097656 L 611.058594 166.453125 L 604.800781 167.292969 L 604.800781 169.703125 L 607.691406 170.351562 L 607.691406 193.984375 L 604.621094 194.363281 L 604.621094 196.84375 L 615.398438 196.84375 L 615.398438 194.363281 L 612.183594 193.984375 L 612.183594 167.097656 "/>
<path style=" stroke:none;fill-rule:nonzero;fill:rgb(6.278992%,5.741882%,5.058289%);fill-opacity:1;" d="M 624.800781 167.097656 L 623.679688 166.453125 L 617.417969 167.292969 L 617.417969 169.703125 L 620.308594 170.351562 L 620.308594 193.984375 L 617.238281 194.363281 L 617.238281 196.84375 L 628.015625 196.84375 L 628.015625 194.363281 L 624.800781 193.984375 L 624.800781 167.097656 "/>
<path style=" stroke:none;fill-rule:nonzero;fill:rgb(6.278992%,5.741882%,5.058289%);fill-opacity:1;" d="M 632.507812 171.277344 C 632.765625 171.503906 633.0625 171.683594 633.398438 171.804688 C 633.730469 171.925781 634.074219 171.988281 634.421875 171.988281 C 634.820312 171.988281 635.214844 171.914062 635.597656 171.765625 C 635.976562 171.617188 636.316406 171.410156 636.613281 171.148438 C 636.914062 170.882812 637.164062 170.554688 637.347656 170.167969 C 637.535156 169.777344 637.632812 169.339844 637.632812 168.867188 C 637.632812 168.136719 637.40625 167.496094 636.964844 166.964844 C 636.5 166.410156 635.785156 166.128906 634.839844 166.128906 C 634.449219 166.128906 634.058594 166.207031 633.679688 166.363281 C 633.304688 166.519531 632.96875 166.738281 632.671875 167.011719 C 632.375 167.285156 632.128906 167.617188 631.941406 167.996094 C 631.742188 168.390625 631.644531 168.816406 631.644531 169.265625 C 631.644531 169.6875 631.722656 170.074219 631.878906 170.414062 C 632.03125 170.753906 632.242188 171.042969 632.507812 171.277344 "/>
<path style=" stroke:none;fill-rule:nonzero;fill:rgb(6.278992%,5.741882%,5.058289%);fill-opacity:1;" d="M 637.324219 175.792969 L 636.050781 175.226562 L 630.503906 176.804688 L 630.503906 178.605469 L 633 179.925781 L 633 193.984375 L 629.925781 194.363281 L 629.925781 196.84375 L 640.253906 196.84375 L 640.253906 194.367188 L 637.324219 193.988281 L 637.324219 175.792969 "/>
<path style=" stroke:none;fill-rule:nonzero;fill:rgb(6.278992%,5.741882%,5.058289%);fill-opacity:1;" d="M 662.523438 184.234375 C 662.523438 182.691406 662.417969 181.347656 662.207031 180.234375 C 661.988281 179.089844 661.625 178.128906 661.117188 177.382812 C 660.59375 176.609375 659.898438 176.042969 659.046875 175.699219 C 658.226562 175.367188 657.246094 175.214844 656.019531 175.257812 C 655.375 175.28125 654.683594 175.386719 653.964844 175.570312 C 653.257812 175.75 652.558594 175.984375 651.886719 176.269531 C 651.21875 176.554688 650.578125 176.878906 649.984375 177.230469 C 649.726562 177.386719 649.480469 177.539062 649.257812 177.695312 L 649.257812 175.792969 L 647.976562 175.222656 L 642.632812 176.808594 L 642.632812 178.601562 L 645.199219 180.011719 L 645.199219 194.015625 L 642.742188 194.375 L 642.742188 196.84375 L 652.402344 196.84375 L 652.402344 194.371094 L 649.707031 193.992188 L 649.707031 180.539062 C 650.503906 180.015625 651.273438 179.617188 651.996094 179.363281 C 652.777344 179.085938 653.527344 178.925781 654.214844 178.894531 C 655.054688 178.863281 655.722656 178.957031 656.214844 179.175781 C 656.6875 179.386719 657.050781 179.710938 657.316406 180.164062 C 657.601562 180.648438 657.796875 181.277344 657.894531 182.039062 C 658 182.84375 658.054688 183.792969 658.054688 184.863281 L 658.054688 193.992188 L 655.324219 194.371094 L 655.324219 196.84375 L 665.433594 196.84375 L 665.433594 194.363281 L 662.523438 194.003906 L 662.523438 184.234375 "/>
<path style=" stroke:none;fill-rule:nonzero;fill:rgb(6.278992%,5.741882%,5.058289%);fill-opacity:1;" d="M 675.332031 203.167969 C 674.695312 203.019531 674.132812 202.78125 673.652344 202.464844 C 673.1875 202.148438 672.824219 201.753906 672.550781 201.246094 C 672.277344 200.75 672.140625 200.128906 672.140625 199.398438 C 672.140625 198.980469 672.167969 198.609375 672.222656 198.300781 C 672.277344 197.988281 672.351562 197.710938 672.441406 197.46875 C 672.535156 197.226562 672.636719 197.011719 672.746094 196.824219 C 672.808594 196.726562 672.871094 196.628906 672.9375 196.539062 C 673.320312 196.59375 673.742188 196.636719 674.195312 196.671875 C 674.765625 196.714844 675.386719 196.734375 676.132812 196.734375 L 678.417969 196.769531 C 679.496094 196.769531 680.371094 196.847656 681.023438 197.003906 C 681.640625 197.148438 682.117188 197.355469 682.441406 197.617188 C 682.75 197.867188 682.949219 198.160156 683.054688 198.519531 C 683.171875 198.921875 683.234375 199.394531 683.234375 199.921875 C 683.234375 200.507812 683.109375 201.015625 682.867188 201.433594 C 682.617188 201.863281 682.265625 202.210938 681.792969 202.496094 C 681.304688 202.789062 680.691406 203.015625 679.96875 203.164062 C 678.648438 203.441406 676.820312 203.515625 675.332031 203.167969 Z M 676.953125 187.023438 C 676.164062 187.023438 675.484375 186.894531 674.933594 186.636719 C 674.386719 186.382812 673.9375 186.03125 673.597656 185.597656 C 673.25 185.152344 672.988281 184.621094 672.828125 184.019531 C 672.660156 183.398438 672.574219 182.726562 672.574219 182.027344 C 672.574219 181.175781 672.675781 180.464844 672.878906 179.914062 C 673.070312 179.382812 673.339844 178.953125 673.671875 178.640625 C 674.003906 178.328125 674.398438 178.101562 674.847656 177.96875 C 675.324219 177.828125 675.84375 177.753906 676.394531 177.753906 C 677.800781 177.753906 678.8125 178.125 679.492188 178.890625 C 680.175781 179.660156 680.519531 180.890625 680.519531 182.550781 C 680.519531 183.339844 680.453125 184.035156 680.316406 184.617188 C 680.191406 185.164062 679.984375 185.621094 679.710938 185.980469 C 679.445312 186.324219 679.105469 186.578125 678.667969 186.75 C 678.210938 186.929688 677.636719 187.023438 676.953125 187.023438 Z M 683.003906 175.65625 C 682.644531 175.792969 682.335938 175.964844 682.078125 176.160156 C 681.425781 175.730469 680.683594 175.402344 679.875 175.191406 C 679.019531 174.96875 678.105469 174.855469 677.144531 174.855469 L 676.851562 174.855469 C 675.800781 174.882812 674.742188 175.054688 673.71875 175.367188 C 672.675781 175.683594 671.730469 176.167969 670.910156 176.804688 C 670.078125 177.453125 669.398438 178.273438 668.894531 179.246094 C 668.382812 180.230469 668.121094 181.398438 668.121094 182.714844 C 668.121094 184.109375 668.40625 185.316406 668.976562 186.300781 C 669.433594 187.09375 670.03125 187.765625 670.765625 188.304688 C 670.550781 188.535156 670.351562 188.785156 670.171875 189.046875 C 669.871094 189.480469 669.621094 189.910156 669.425781 190.328125 C 669.230469 190.746094 669.074219 191.148438 668.972656 191.527344 C 668.859375 191.925781 668.808594 192.246094 668.808594 192.511719 C 668.808594 192.769531 668.8125 193.050781 668.824219 193.34375 C 668.839844 193.691406 668.917969 194.035156 669.054688 194.363281 C 669.195312 194.710938 669.433594 195.035156 669.765625 195.339844 C 669.929688 195.488281 670.117188 195.621094 670.34375 195.746094 C 670.222656 195.851562 670.097656 195.960938 669.972656 196.078125 C 669.59375 196.429688 669.238281 196.835938 668.917969 197.28125 C 668.597656 197.734375 668.324219 198.238281 668.109375 198.78125 C 667.890625 199.34375 667.777344 199.941406 667.777344 200.554688 C 667.777344 201.695312 668.066406 202.667969 668.632812 203.445312 C 669.183594 204.199219 669.910156 204.808594 670.800781 205.257812 C 671.660156 205.695312 672.648438 206.007812 673.738281 206.183594 C 674.800781 206.355469 675.898438 206.441406 677.007812 206.441406 C 678.542969 206.441406 679.933594 206.269531 681.148438 205.925781 C 682.378906 205.578125 683.433594 205.082031 684.292969 204.445312 C 685.164062 203.800781 685.84375 203.011719 686.308594 202.105469 C 686.777344 201.191406 687.015625 200.167969 687.015625 199.054688 C 687.015625 198.65625 686.996094 198.234375 686.960938 197.792969 C 686.921875 197.324219 686.8125 196.851562 686.644531 196.386719 C 686.46875 195.917969 686.210938 195.46875 685.882812 195.042969 C 685.539062 194.605469 685.070312 194.21875 684.488281 193.898438 C 683.925781 193.589844 683.214844 193.335938 682.375 193.152344 C 681.550781 192.972656 680.546875 192.878906 679.394531 192.878906 C 678.347656 192.878906 677.445312 192.875 676.6875 192.871094 C 675.941406 192.863281 675.300781 192.839844 674.773438 192.789062 C 674.058594 192.730469 673.546875 192.558594 673.296875 192.292969 C 673.039062 192.027344 672.917969 191.644531 672.917969 191.121094 C 672.917969 190.996094 672.914062 190.835938 672.90625 190.644531 C 672.902344 190.464844 672.902344 190.277344 672.90625 190.074219 C 672.914062 189.882812 672.929688 189.683594 672.960938 189.476562 C 672.960938 189.464844 672.960938 189.453125 672.964844 189.445312 C 674.925781 190.085938 677.460938 190.171875 679.636719 189.441406 C 680.660156 189.097656 681.578125 188.585938 682.367188 187.921875 C 683.15625 187.253906 683.796875 186.417969 684.265625 185.433594 C 684.734375 184.445312 684.976562 183.308594 684.976562 182.046875 C 684.976562 181.328125 684.898438 180.648438 684.753906 180.03125 C 684.675781 179.703125 684.578125 179.390625 684.460938 179.09375 L 687.722656 179.09375 L 687.722656 175.363281 L 685.035156 175.363281 C 684.195312 175.363281 683.53125 175.460938 683.003906 175.65625 "/>
<path style=" stroke:none;fill-rule:nonzero;fill:rgb(6.278992%,5.741882%,5.058289%);fill-opacity:1;" d="M 709.492188 203.167969 C 708.855469 203.019531 708.289062 202.78125 707.8125 202.464844 C 707.347656 202.148438 706.984375 201.753906 706.710938 201.246094 C 706.4375 200.75 706.300781 200.128906 706.300781 199.398438 C 706.300781 198.980469 706.328125 198.609375 706.382812 198.300781 C 706.4375 197.988281 706.511719 197.710938 706.601562 197.46875 C 706.695312 197.226562 706.796875 197.011719 706.90625 196.824219 C 706.96875 196.726562 707.03125 196.628906 707.097656 196.539062 C 707.480469 196.59375 707.902344 196.636719 708.355469 196.671875 C 708.925781 196.714844 709.578125 196.734375 710.289062 196.734375 L 710.292969 196.734375 L 712.578125 196.769531 C 713.65625 196.769531 714.53125 196.847656 715.183594 197.003906 C 715.800781 197.148438 716.277344 197.355469 716.601562 197.617188 C 716.910156 197.867188 717.109375 198.160156 717.214844 198.519531 C 717.332031 198.921875 717.394531 199.394531 717.394531 199.921875 C 717.394531 200.507812 717.269531 201.015625 717.027344 201.433594 C 716.777344 201.863281 716.425781 202.210938 715.953125 202.496094 C 715.464844 202.789062 714.851562 203.015625 714.128906 203.164062 C 712.808594 203.441406 710.980469 203.515625 709.492188 203.167969 Z M 711.113281 187.023438 C 710.324219 187.023438 709.644531 186.894531 709.09375 186.636719 C 708.546875 186.382812 708.097656 186.03125 707.757812 185.597656 C 707.410156 185.152344 707.148438 184.621094 706.988281 184.019531 C 706.820312 183.398438 706.734375 182.726562 706.734375 182.027344 C 706.734375 181.175781 706.835938 180.464844 707.039062 179.914062 C 707.230469 179.382812 707.5 178.953125 707.832031 178.640625 C 708.164062 178.328125 708.558594 178.101562 709.007812 177.96875 C 709.484375 177.828125 710.003906 177.753906 710.554688 177.753906 C 711.960938 177.753906 712.972656 178.125 713.652344 178.890625 C 714.335938 179.660156 714.683594 180.890625 714.683594 182.550781 C 714.683594 183.339844 714.613281 184.035156 714.476562 184.617188 C 714.351562 185.164062 714.144531 185.621094 713.871094 185.980469 C 713.605469 186.324219 713.265625 186.578125 712.828125 186.75 C 712.371094 186.929688 711.796875 187.023438 711.113281 187.023438 Z M 717.164062 175.65625 C 716.804688 175.792969 716.492188 175.964844 716.238281 176.160156 C 715.585938 175.730469 714.84375 175.402344 714.035156 175.191406 C 713.183594 174.96875 712.265625 174.855469 711.308594 174.855469 L 711.011719 174.855469 C 709.960938 174.882812 708.902344 175.054688 707.878906 175.367188 C 706.835938 175.683594 705.890625 176.167969 705.070312 176.804688 C 704.238281 177.453125 703.558594 178.273438 703.054688 179.246094 C 702.539062 180.230469 702.28125 181.398438 702.28125 182.714844 C 702.28125 184.109375 702.566406 185.316406 703.136719 186.300781 C 703.59375 187.09375 704.191406 187.765625 704.925781 188.304688 C 704.710938 188.535156 704.511719 188.785156 704.332031 189.046875 C 704.03125 189.480469 703.78125 189.910156 703.585938 190.328125 C 703.390625 190.746094 703.234375 191.148438 703.132812 191.527344 C 703.019531 191.925781 702.96875 192.246094 702.96875 192.511719 C 702.96875 192.769531 702.976562 193.050781 702.984375 193.34375 C 703 193.691406 703.078125 194.035156 703.214844 194.363281 C 703.355469 194.710938 703.597656 195.035156 703.925781 195.339844 C 704.089844 195.488281 704.277344 195.621094 704.503906 195.746094 C 704.382812 195.851562 704.257812 195.960938 704.132812 196.078125 C 703.753906 196.429688 703.398438 196.835938 703.078125 197.28125 C 702.757812 197.734375 702.484375 198.238281 702.269531 198.78125 C 702.050781 199.34375 701.9375 199.941406 701.9375 200.554688 C 701.9375 201.695312 702.226562 202.667969 702.792969 203.445312 C 703.34375 204.199219 704.070312 204.808594 704.960938 205.257812 C 705.820312 205.695312 706.808594 206.007812 707.898438 206.183594 C 708.960938 206.355469 710.058594 206.441406 711.167969 206.441406 C 712.703125 206.441406 714.097656 206.269531 715.308594 205.925781 C 716.535156 205.578125 717.59375 205.082031 718.453125 204.445312 C 719.324219 203.800781 720.003906 203.011719 720.472656 202.105469 C 720.9375 201.191406 721.175781 200.167969 721.175781 199.054688 C 721.175781 198.65625 721.15625 198.234375 721.121094 197.792969 C 721.082031 197.324219 720.976562 196.851562 720.804688 196.386719 C 720.628906 195.917969 720.371094 195.46875 720.039062 195.042969 C 719.699219 194.605469 719.230469 194.21875 718.648438 193.898438 C 718.085938 193.589844 717.375 193.335938 716.535156 193.152344 C 715.710938 192.972656 714.707031 192.878906 713.554688 192.878906 C 712.507812 192.878906 711.605469 192.875 710.847656 192.871094 C 710.101562 192.863281 709.460938 192.839844 708.933594 192.789062 C 708.21875 192.730469 707.707031 192.558594 707.453125 192.292969 C 707.199219 192.027344 707.078125 191.644531 707.078125 191.121094 C 707.078125 190.996094 707.074219 190.835938 707.066406 190.644531 C 707.0625 190.464844 707.0625 190.277344 707.066406 190.074219 C 707.074219 189.882812 707.089844 189.683594 707.117188 189.476562 C 707.121094 189.464844 707.121094 189.453125 707.121094 189.445312 C 709.085938 190.085938 711.621094 190.171875 713.796875 189.441406 C 714.820312 189.097656 715.738281 188.585938 716.527344 187.921875 C 717.316406 187.253906 717.957031 186.417969 718.425781 185.433594 C 718.894531 184.445312 719.136719 183.308594 719.136719 182.046875 C 719.136719 181.328125 719.058594 180.648438 718.914062 180.03125 C 718.835938 179.703125 718.738281 179.390625 718.621094 179.09375 L 721.882812 179.09375 L 721.882812 175.363281 L 719.195312 175.363281 C 718.355469 175.363281 717.691406 175.460938 717.164062 175.65625 "/>
<path style=" stroke:none;fill-rule:nonzero;fill:rgb(6.278992%,5.741882%,5.058289%);fill-opacity:1;" d="M 735.914062 186.695312 C 735.90625 187.652344 735.898438 188.605469 735.894531 189.554688 C 735.886719 190.597656 735.886719 191.648438 735.886719 192.707031 C 735.753906 192.820312 735.589844 192.9375 735.402344 193.054688 C 735.132812 193.226562 734.835938 193.382812 734.519531 193.515625 C 734.199219 193.648438 733.859375 193.765625 733.511719 193.855469 C 732.546875 194.101562 731.609375 193.984375 730.871094 193.789062 C 730.414062 193.671875 730.027344 193.480469 729.71875 193.222656 C 729.414062 192.96875 729.1875 192.640625 729.023438 192.222656 C 728.855469 191.785156 728.769531 191.238281 728.769531 190.597656 C 728.769531 190.101562 728.875 189.683594 729.089844 189.308594 C 729.3125 188.925781 729.621094 188.582031 730 188.289062 C 730.394531 187.988281 730.859375 187.734375 731.375 187.539062 C 731.917969 187.332031 732.484375 187.160156 733.058594 187.035156 C 733.636719 186.90625 734.222656 186.816406 734.804688 186.765625 C 735.191406 186.730469 735.5625 186.707031 735.914062 186.695312 Z M 740.410156 182.371094 C 740.410156 180.992188 740.203125 179.832031 739.796875 178.921875 C 739.386719 178 738.8125 177.253906 738.101562 176.707031 C 737.394531 176.164062 736.566406 175.78125 735.640625 175.566406 C 734.742188 175.359375 733.789062 175.253906 732.804688 175.253906 C 732.324219 175.253906 731.746094 175.300781 731.085938 175.386719 C 730.421875 175.472656 729.730469 175.609375 729.035156 175.796875 C 728.335938 175.980469 727.644531 176.21875 726.980469 176.496094 C 726.292969 176.785156 725.703125 177.128906 725.222656 177.519531 L 724.933594 177.753906 L 725.949219 180.214844 L 726.425781 179.984375 C 726.828125 179.785156 727.261719 179.605469 727.714844 179.441406 C 728.171875 179.28125 728.621094 179.140625 729.070312 179.023438 C 729.515625 178.90625 729.949219 178.816406 730.367188 178.753906 C 730.773438 178.691406 731.144531 178.660156 731.46875 178.660156 C 732.128906 178.660156 732.753906 178.71875 733.320312 178.828125 C 733.847656 178.933594 734.308594 179.136719 734.691406 179.425781 C 735.0625 179.707031 735.363281 180.109375 735.582031 180.621094 C 735.808594 181.15625 735.921875 181.871094 735.921875 182.75 L 735.921875 183.832031 C 735.457031 183.847656 734.9375 183.878906 734.367188 183.933594 C 733.578125 184.007812 732.75 184.140625 731.902344 184.320312 C 731.058594 184.507812 730.199219 184.757812 729.355469 185.0625 C 728.496094 185.378906 727.699219 185.78125 726.992188 186.257812 C 726.273438 186.75 725.660156 187.339844 725.171875 188.015625 C 724.660156 188.71875 724.355469 189.546875 724.265625 190.464844 C 724.160156 191.378906 724.242188 192.257812 724.511719 193.074219 C 724.777344 193.890625 725.195312 194.617188 725.753906 195.238281 C 726.3125 195.863281 727.015625 196.363281 727.839844 196.730469 C 728.664062 197.09375 729.59375 197.277344 730.601562 197.277344 C 731.390625 197.277344 732.117188 197.214844 732.765625 197.085938 C 733.421875 196.960938 734.015625 196.777344 734.535156 196.546875 C 735.058594 196.316406 735.527344 196.039062 735.9375 195.730469 C 736.019531 195.667969 736.097656 195.605469 736.171875 195.542969 C 736.214844 195.789062 736.289062 196.003906 736.390625 196.1875 C 736.570312 196.519531 736.8125 196.773438 737.101562 196.941406 C 737.371094 197.09375 737.667969 197.191406 737.988281 197.230469 C 738.265625 197.261719 738.519531 197.277344 738.753906 197.277344 C 739.414062 197.277344 740.082031 197.199219 740.738281 197.046875 C 741.398438 196.894531 741.96875 196.6875 742.425781 196.441406 L 742.6875 196.296875 L 742.6875 194.308594 L 740.375 194.308594 L 740.410156 182.371094 "/>
<path style=" stroke:none;fill-rule:nonzero;fill:rgb(6.278992%,5.741882%,5.058289%);fill-opacity:1;" d="M 776.542969 184.394531 C 776.542969 182.816406 776.4375 181.441406 776.226562 180.308594 C 776.011719 179.136719 775.644531 178.164062 775.140625 177.410156 C 774.613281 176.628906 773.910156 176.058594 773.050781 175.707031 C 772.21875 175.367188 771.238281 175.21875 770.003906 175.257812 C 769.398438 175.28125 768.742188 175.371094 768.054688 175.519531 C 767.375 175.667969 766.691406 175.867188 766.023438 176.105469 C 765.355469 176.347656 764.710938 176.625 764.101562 176.9375 C 763.691406 177.144531 763.316406 177.363281 762.976562 177.585938 C 762.507812 176.777344 761.890625 176.1875 761.144531 175.820312 C 760.269531 175.394531 759.136719 175.199219 757.75 175.257812 C 757.101562 175.28125 756.417969 175.386719 755.710938 175.570312 C 755.015625 175.75 754.324219 175.984375 753.65625 176.273438 C 752.992188 176.558594 752.363281 176.882812 751.78125 177.234375 C 751.535156 177.382812 751.308594 177.53125 751.09375 177.679688 L 751.09375 175.792969 L 749.8125 175.222656 L 744.472656 176.808594 L 744.472656 178.601562 L 747.039062 180.011719 L 747.039062 193.984375 L 744.578125 194.382812 L 744.578125 196.84375 L 754.238281 196.84375 L 754.238281 194.371094 L 751.542969 193.992188 C 751.53125 192.320312 751.53125 190.660156 751.546875 189.007812 C 751.558594 187.210938 751.5625 185.402344 751.5625 183.582031 L 751.5625 180.539062 C 752.359375 180.015625 753.132812 179.617188 753.859375 179.363281 C 754.648438 179.085938 755.351562 178.925781 755.945312 178.894531 C 756.785156 178.859375 757.472656 178.941406 757.976562 179.140625 C 758.449219 179.324219 758.8125 179.625 759.078125 180.050781 C 759.367188 180.507812 759.5625 181.117188 759.667969 181.859375 C 759.777344 182.65625 759.835938 183.625 759.835938 184.738281 L 759.835938 193.976562 L 757.125 194.375 L 757.125 196.84375 L 767.070312 196.84375 L 767.070312 194.367188 L 764.308594 194.007812 L 764.308594 184.214844 C 764.308594 183.40625 764.269531 182.613281 764.195312 181.859375 C 764.136719 181.253906 764.054688 180.695312 763.957031 180.1875 C 764.605469 179.839844 765.269531 179.550781 765.933594 179.328125 C 766.695312 179.074219 767.472656 178.925781 768.234375 178.894531 C 769.074219 178.863281 769.742188 178.957031 770.234375 179.175781 C 770.710938 179.386719 771.066406 179.714844 771.335938 180.171875 C 771.621094 180.660156 771.8125 181.304688 771.914062 182.082031 C 772.019531 182.910156 772.074219 183.898438 772.074219 185.027344 L 772.074219 194 L 769.613281 194.378906 L 769.613281 196.84375 L 779.597656 196.84375 L 779.597656 194.363281 L 776.542969 193.984375 L 776.542969 184.394531 "/>
<g clip-path="url(#clip1)" clip-rule="nonzero">
<path style=" stroke:none;fill-rule:nonzero;fill:rgb(6.278992%,5.741882%,5.058289%);fill-opacity:1;" d="M 794.714844 182.519531 C 794.726562 182.960938 794.726562 183.410156 794.710938 183.859375 L 785.847656 183.859375 C 785.957031 182.898438 786.148438 182.0625 786.417969 181.367188 C 786.730469 180.554688 787.121094 179.886719 787.578125 179.378906 C 788.023438 178.886719 788.53125 178.519531 789.089844 178.296875 C 790.097656 177.894531 791.269531 177.878906 792.097656 178.09375 C 792.441406 178.179688 792.75 178.3125 793.023438 178.492188 C 793.414062 178.738281 793.71875 179.054688 793.949219 179.449219 C 794.195312 179.871094 794.382812 180.339844 794.503906 180.847656 C 794.625 181.378906 794.695312 181.941406 794.714844 182.519531 Z M 799.375 183.019531 C 799.324219 181.78125 799.117188 180.65625 798.757812 179.667969 C 798.390625 178.671875 797.878906 177.8125 797.234375 177.113281 C 796.582031 176.410156 795.785156 175.871094 794.859375 175.515625 C 794.007812 175.183594 793.054688 175.019531 792.019531 175.019531 L 791.796875 175.019531 C 790.253906 175.058594 788.820312 175.367188 787.535156 175.941406 C 786.25 176.515625 785.132812 177.3125 784.21875 178.308594 C 783.304688 179.304688 782.582031 180.496094 782.074219 181.851562 C 781.566406 183.203125 781.308594 184.699219 781.308594 186.292969 C 781.308594 187.929688 781.519531 189.433594 781.9375 190.761719 C 782.359375 192.109375 782.984375 193.277344 783.796875 194.234375 C 784.613281 195.199219 785.632812 195.957031 786.820312 196.484375 C 788.007812 197.011719 789.382812 197.277344 790.902344 197.277344 C 791.609375 197.277344 792.339844 197.230469 793.078125 197.136719 C 793.820312 197.046875 794.542969 196.90625 795.222656 196.726562 C 795.910156 196.546875 796.554688 196.320312 797.136719 196.058594 C 797.742188 195.785156 798.242188 195.472656 798.628906 195.125 L 798.898438 194.882812 L 797.863281 192.507812 L 797.378906 192.78125 C 797.15625 192.910156 796.851562 193.035156 796.472656 193.15625 C 796.074219 193.28125 795.632812 193.398438 795.164062 193.496094 C 794.699219 193.59375 794.207031 193.671875 793.707031 193.722656 C 792.398438 193.859375 791.269531 193.824219 790.039062 193.484375 C 789.308594 193.28125 788.628906 192.921875 788.015625 192.410156 C 787.40625 191.898438 786.886719 191.191406 786.476562 190.3125 C 786.074219 189.460938 785.84375 188.363281 785.78125 186.992188 L 799.09375 186.992188 L 799.152344 186.5625 C 799.214844 186.121094 799.269531 185.621094 799.328125 185.058594 C 799.382812 184.488281 799.398438 183.804688 799.375 183.019531 "/>
</g>
<g clip-path="url(#clip2)" clip-rule="nonzero">
<path style=" stroke:none;fill-rule:nonzero;fill:rgb(6.278992%,5.741882%,5.058289%);fill-opacity:1;" d="M 115.5 17.1875 C 60.738281 17.1875 16.191406 61.738281 16.191406 116.5 C 16.191406 171.257812 60.738281 215.808594 115.5 215.808594 C 170.261719 215.808594 214.808594 171.257812 214.808594 116.5 C 214.808594 61.738281 170.261719 17.1875 115.5 17.1875 Z M 115.5 232 C 51.8125 232 0 180.1875 0 116.5 C 0 52.8125 51.8125 1 115.5 1 C 179.1875 1 231 52.8125 231 116.5 C 231 180.1875 179.1875 232 115.5 232 "/>
</g>
<path style=" stroke:none;fill-rule:nonzero;fill:rgb(6.278992%,5.741882%,5.058289%);fill-opacity:1;" d="M 100.242188 165.722656 C 99.480469 164.238281 98.066406 163.375 95.753906 163.871094 C 73.511719 168.632812 68.660156 165.027344 57.683594 167.355469 C 51.527344 168.527344 54.613281 190.226562 62.144531 188.273438 C 70.558594 185.710938 77.269531 183.632812 92.074219 178.878906 L 100.242188 165.722656 "/>
<path style=" stroke:none;fill-rule:nonzero;fill:rgb(6.278992%,5.741882%,5.058289%);fill-opacity:1;" d="M 130.578125 179.664062 C 143.53125 185.25 151.320312 188.476562 159.027344 191.660156 C 173.835938 197.921875 175.789062 172.539062 168.972656 170.925781 C 159.316406 168.492188 148.730469 170.722656 131.789062 166.464844 C 126.859375 165.222656 124.808594 177.175781 130.578125 179.664062 "/>
<path style=" stroke:none;fill-rule:nonzero;fill:rgb(6.278992%,5.741882%,5.058289%);fill-opacity:1;" d="M 113.023438 153.503906 C 102.304688 176.539062 92.097656 187.691406 87.695312 197.300781 C 83.835938 204.945312 111.867188 212.335938 113.628906 203.890625 C 116.421875 193.585938 119.558594 181.578125 126.039062 157.59375 C 127.207031 153.277344 115.777344 147.585938 113.023438 153.503906 "/>
<path style=" stroke:none;fill-rule:nonzero;fill:rgb(6.278992%,5.741882%,5.058289%);fill-opacity:1;" d="M 165.96875 105.683594 C 159.503906 96.660156 151.992188 89.789062 156.71875 77.714844 C 150.699219 81.449219 151.960938 92.691406 144.480469 93.46875 C 140.472656 93.882812 136.113281 91.382812 135.351562 87.285156 C 134.515625 82.785156 137.597656 79.449219 138.753906 75.34375 C 144.484375 55.007812 131.136719 37.078125 114.214844 27.5625 C 118.859375 43.796875 119.238281 61.613281 106.03125 73.769531 C 105.988281 62.753906 101.933594 57.988281 94.144531 51.371094 C 96.035156 64.324219 91.441406 73.367188 82.578125 82.300781 C 73.320312 91.636719 69.761719 101.023438 73.066406 114.21875 C 65.761719 114.625 62.28125 104.589844 62.78125 98.855469 C 55.953125 112.226562 53.84375 129.425781 62.109375 142.6875 C 66.816406 150.238281 74.140625 154.714844 82.21875 157.648438 C 78.855469 153.121094 77.507812 146.835938 79.871094 141.628906 C 83.710938 133.183594 88.882812 132.132812 87.445312 125.355469 C 90.269531 127.496094 89.457031 130.835938 90.308594 133.710938 C 91.371094 137.3125 94.523438 138.988281 97.992188 139.351562 C 103.023438 139.878906 109.324219 135.425781 106.636719 129.792969 C 103.898438 124.011719 99.328125 119.117188 100.78125 112.265625 C 102.222656 105.492188 107.769531 100.742188 113.117188 96.859375 C 110.898438 102.3125 109.089844 108.769531 111.414062 114.492188 C 113.097656 118.640625 116.605469 121.546875 119.605469 124.722656 C 119.636719 119.042969 121.933594 114.039062 126.742188 110.917969 C 124.175781 118.949219 129.234375 125.785156 134.105469 131.648438 C 136.347656 134.347656 138.746094 137.03125 140.367188 140.164062 C 141.179688 141.734375 141.726562 142.703125 141.578125 143.976562 C 145.101562 143.304688 146.222656 139.9375 146.574219 138.070312 C 151.710938 141.917969 149.191406 151.511719 146.160156 155.6875 C 145.523438 156.570312 144.816406 157.375 144.0625 158.121094 C 147.140625 157.058594 150.125 155.855469 152.972656 154.507812 C 169.386719 146.75 177.128906 121.253906 165.96875 105.683594 "/>
</g>
</svg>
