<?xml version="1.0" encoding="UTF-8" standalone="no"?>
<svg
   xmlns:dc="http://purl.org/dc/elements/1.1/"
   xmlns:cc="http://creativecommons.org/ns#"
   xmlns:rdf="http://www.w3.org/1999/02/22-rdf-syntax-ns#"
   xmlns:svg="http://www.w3.org/2000/svg"
   xmlns="http://www.w3.org/2000/svg"
   xmlns:sodipodi="http://sodipodi.sourceforge.net/DTD/sodipodi-0.dtd"
   xmlns:inkscape="http://www.inkscape.org/namespaces/inkscape"
   version="1.1"
   id="svg851"
   xml:space="preserve"
   width="400.32468"
   height="175.64287"
   viewBox="0 0 400.32467 175.64286"
   sodipodi:docname="umass_ngram.svg"
   inkscape:version="1.0.1 (c497b03c, 2020-09-10)"><metadata
     id="metadata857"><rdf:RDF><cc:Work
         rdf:about=""><dc:format>image/svg+xml</dc:format><dc:type
           rdf:resource="http://purl.org/dc/dcmitype/StillImage" /><dc:title /></cc:Work></rdf:RDF></metadata><defs
     id="defs855" /><sodipodi:namedview
     pagecolor="#ffffff"
     bordercolor="#666666"
     borderopacity="1"
     objecttolerance="10"
     gridtolerance="10"
     guidetolerance="10"
     inkscape:pageopacity="0"
     inkscape:pageshadow="2"
     inkscape:window-width="2560"
     inkscape:window-height="1035"
     id="namedview853"
     showgrid="false"
     inkscape:zoom="2.4804818"
     inkscape:cx="273.0031"
     inkscape:cy="64.62241"
     inkscape:window-x="0"
     inkscape:window-y="23"
     inkscape:window-maximized="0"
     inkscape:current-layer="g859"
     inkscape:document-rotation="0" /><g
     id="g859"
     inkscape:groupmode="layer"
     inkscape:label="ink_ext_XXXXXX"
     transform="matrix(1.3333333,0,0,-1.3333333,-31.990494,181.88)"><rect
       style="fill:#666666;stroke:#4d4d4d;stroke-width:1.67802;stroke-miterlimit:10;stroke-dasharray:none"
       id="rect1006"
       width="206.42204"
       height="9.8417559"
       x="71.586502"
       y="-91.83316"
       transform="scale(1,-1)" /><rect
       style="fill:#b3b3b3;stroke:#4d4d4d;stroke-width:1.30845;stroke-miterlimit:10;stroke-dasharray:none"
       id="rect1008"
       width="258.02756"
       height="8.704051"
       x="43.798923"
       y="-99.931923"
       transform="scale(1,-1)" /><path
       style="fill:#820b27;fill-opacity:1;stroke:#5a081b;stroke-width:1.34925;stroke-linecap:butt;stroke-linejoin:miter;stroke-miterlimit:4;stroke-dasharray:none;stroke-opacity:1"
       d="M 25.273857,15.783242 H 322.99796 c 0,0 5.29289,42.051139 -17.20184,62.62934 -6.7658,6.189376 -258.507736,6.482593 -264.643644,1.2e-5 C 19.980983,56.044974 25.273857,15.783242 25.273857,15.783242 Z"
       id="path979"
       sodipodi:nodetypes="ccssc" /><path
       style="fill:#b3cfd1;fill-opacity:1;stroke:#999999;stroke-width:3.75;stroke-linecap:butt;stroke-linejoin:miter;stroke-miterlimit:4;stroke-dasharray:none;stroke-opacity:1"
       d="M 81.051062,29.337599 H 264.72776 c 0,0 3.26537,24.959218 -10.61242,37.173296 -4.17408,3.673665 -159.482741,3.847702 -163.26819,0 C 77.785687,53.23472 81.051062,29.337599 81.051062,29.337599 Z"
       id="path979-6"
       sodipodi:nodetypes="ccssc" /><text
       xml:space="preserve"
       style="font-style:normal;font-weight:normal;font-size:43.8359px;line-height:1.25;font-family:sans-serif;letter-spacing:0px;word-spacing:0px;fill:#820b27;fill-opacity:1;stroke:none;stroke-width:1.09589"
       x="92.918579"
       y="-39.913692"
       id="text1012"
       transform="scale(1.0520552,-0.95052045)"><tspan
         sodipodi:role="line"
         id="tspan1014"
         x="92.918579"
         y="-39.913692"
         style="font-style:normal;font-variant:normal;font-weight:normal;font-stretch:normal;font-size:35.0687px;font-family:'Minion Pro';-inkscape-font-specification:'Minion Pro, Normal';font-variant-ligatures:normal;font-variant-caps:normal;font-variant-numeric:normal;font-variant-east-asian:normal;fill:#820b27;fill-opacity:1;stroke-width:1.09589">N-GRAM</tspan></text><rect
       style="fill:#5a081b;fill-opacity:1;stroke:#5a081b;stroke-width:1.67802;stroke-miterlimit:10;stroke-dasharray:none;stroke-opacity:1"
       id="rect1016"
       width="22.494715"
       height="8.9470453"
       x="42.475704"
       y="-14.463906"
       transform="scale(1,-1)" /><rect
       style="fill:#5a081b;fill-opacity:1;stroke:#5a081b;stroke-width:1.67802;stroke-miterlimit:10;stroke-dasharray:none;stroke-opacity:1"
       id="rect1016-1"
       width="22.494715"
       height="8.9470453"
       x="283.96307"
       y="-14.88853"
       transform="scale(1,-1)" /><g
       id="g1729"
       transform="matrix(0.1,0,0,0.1,97.18555,-10.841996)"><path
         d="m 393.738,1457.12 c -32.992,-2.2 -45.636,-9.35 -47.84,-32.45 -1.652,-14.85 -3.3,-38.49 -3.3,-89.08 v -45.1 c 0,-64.89 -9.899,-111.64 -41.243,-145.18 -25.847,-26.4 -62.695,-37.95 -98.988,-37.95 -32.445,0 -63.793,7.7 -87.988,26.4 -32.9923,25.3 -48.3946,65.99 -48.3946,130.88 v 136.93 c 0,49.5 -4.9492,51.7 -47.8399,55.55 v 15.4 H 160.023 v -15.4 c -42.894,-2.75 -47.293,-6.05 -47.293,-55.55 v -124.83 c 0,-88.54 35.196,-139.68 103.387,-139.68 79.192,0 103.938,66.54 103.938,157.28 v 41.25 c 0,50.59 -1.653,73.68 -3.856,90.73 -2.746,21.45 -14.297,28.05 -53.34,30.8 v 15.4 h 130.879 v -15.4"
         style="fill:#231f20;fill-opacity:1;fill-rule:nonzero;stroke:none"
         id="path1063" /><path
         d="m 717.699,1115.06 v 15.4 c 45.094,3.85 46.742,7.15 46.742,65.44 l -2.199,224.37 h -2.199 L 625.859,1118.91 H 614.863 L 491.68,1412.57 h -1.098 l -8.254,-156.73 c -2.195,-45.64 -2.195,-69.29 -1.648,-91.29 1.101,-26.39 13.75,-30.24 50.593,-34.09 v -15.4 H 403.141 v 15.4 c 32.445,3.3 42.894,9.9 46.742,33 3.301,19.24 6.601,42.89 10.449,100.63 l 7.699,114.39 c 4.953,71.49 2.203,73.69 -47.84,78.64 v 15.4 h 90.184 L 635.762,1197 763.344,1472.52 h 93.488 v -15.4 c -48.945,-4.4 -52.242,-5.51 -50.598,-62.14 l 4.954,-199.08 c 1.648,-58.29 3.3,-61.59 51.14,-65.44 v -15.4 H 717.699"
         style="fill:#231f20;fill-opacity:1;fill-rule:nonzero;stroke:none"
         id="path1065" /><path
         d="m 1014.16,1247.05 c -11.54,-6.05 -37.937,-17.6 -49.488,-23.1 -21.449,-9.9 -33.551,-20.35 -33.551,-40.69 0,-28.05 22.004,-41.8 39.051,-41.8 14.297,0 33.548,9.35 43.988,19.79 z m 40.15,-138.59 c -8.25,0 -19.8,4.95 -25.85,11 -7.15,7.15 -10.45,14.85 -13.2,24.2 -21.994,-14.85 -48.389,-35.2 -64.889,-35.2 -39.043,0 -65.992,32.45 -65.992,67.09 0,26.95 14.305,44 44.547,54.45 33,11 73.134,25.84 85.234,35.74 v 9.35 c 0,40.15 -18.691,62.14 -46.738,62.14 -10.449,0 -18.699,-3.85 -24.746,-10.44 -6.602,-7.7 -11.555,-19.81 -15.949,-36.3 -2.754,-8.8 -8.25,-12.65 -15.95,-12.65 -9.898,0 -23.648,10.45 -23.648,23.65 0,7.7 6.601,14.3 17.051,21.99 14.847,11 51.14,31.9 82.492,38.5 16.488,0 32.988,-4.95 45.088,-14.85 19.25,-16.5 24.75,-38.49 24.75,-67.64 v -101.74 c 0,-24.74 9.9,-32.99 19.25,-32.99 6.59,0 14.29,2.75 19.79,6.05 l 5.5,-14.3 -46.74,-28.05"
         style="fill:#231f20;fill-opacity:1;fill-rule:nonzero;stroke:none"
         id="path1067" /><path
         d="m 1250.11,1289.94 c -11,32.99 -29.7,54.44 -56.64,54.44 -21.45,0 -35.75,-15.95 -35.75,-37.94 0,-24.2 22,-36.85 46.2,-47.3 41.79,-17.05 69.84,-36.84 69.84,-74.78 0,-50.05 -46.75,-75.9 -90.74,-75.9 -28.05,0 -53.34,10.45 -62.69,18.7 -3.85,7.7 -9.35,45.09 -9.35,64.89 l 14.85,2.75 c 9.35,-36.3 34.09,-68.19 67.09,-68.19 20.35,0 39.04,14.85 39.04,38.5 0,24.19 -15.95,37.39 -43.44,50.04 -33,14.85 -68.74,33.55 -68.74,75.34 0,38.49 32.99,71.49 83.59,71.49 22.54,0 37.39,-4.95 48.39,-9.9 4.95,-12.1 11,-45.1 12.1,-58.29 l -13.75,-3.85"
         style="fill:#231f20;fill-opacity:1;fill-rule:nonzero;stroke:none"
         id="path1069" /><path
         d="m 1433.82,1289.94 c -11,32.99 -29.69,54.44 -56.64,54.44 -21.45,0 -35.75,-15.95 -35.75,-37.94 0,-24.2 22,-36.85 46.2,-47.3 41.79,-17.05 69.84,-36.84 69.84,-74.78 0,-50.05 -46.75,-75.9 -90.74,-75.9 -28.04,0 -53.34,10.45 -62.69,18.7 -3.85,7.7 -9.35,45.09 -9.35,64.89 l 14.85,2.75 c 9.35,-36.3 34.09,-68.19 67.09,-68.19 20.35,0 39.04,14.85 39.04,38.5 0,24.19 -15.94,37.39 -43.44,50.04 -33,14.85 -68.74,33.55 -68.74,75.34 0,38.49 32.99,71.49 83.59,71.49 22.54,0 37.39,-4.95 48.39,-9.9 4.95,-12.1 11,-45.1 12.1,-58.29 l -13.75,-3.85"
         style="fill:#231f20;fill-opacity:1;fill-rule:nonzero;stroke:none"
         id="path1071" /></g><path
       style="fill:#9e4242;fill-opacity:1;stroke:none;stroke-width:0.75px;stroke-linecap:butt;stroke-linejoin:miter;stroke-opacity:1"
       d="m 157.83225,78.698172 c 0,0 139.68431,2.03426 143.96033,-3.09697 0,0 6.42169,-5.295767 15.68607,-26.534375 6.66119,-15.270795 -12.18873,24.726505 -19.77868,24.940306 -2.03111,3.207018 -139.86772,4.691039 -139.86772,4.691039 z"
       id="path858"
       sodipodi:nodetypes="ccscc" /><path
       style="fill:#9e4242;fill-opacity:1;stroke:none;stroke-width:0.447721px;stroke-linecap:butt;stroke-linejoin:miter;stroke-opacity:1"
       d="m 103.59245,79.070415 c 0,0 -59.17422,1.711253 -60.985663,-2.605223 0,0 -6.034328,-6.165299 -11.990094,-23.603969 -4.250796,-12.446465 11.180416,21.708279 14.579044,22.263011 2.806206,3.081338 58.396713,3.946181 58.396713,3.946181 z"
       id="path858-9"
       sodipodi:nodetypes="ccscc" /><path
       style="fill:#cccccc;stroke:none;stroke-width:0.75px;stroke-linecap:butt;stroke-linejoin:miter;stroke-opacity:1"
       d="m 136.4052,97.851092 c 0,0 157.23024,0.39065 160.17826,0.08856 3.01132,-1.070211 3.22851,-4.653976 3.22851,-4.653976 0,0 -2.62924,2.13556 -5.16569,2.792385 -2.53124,0.2696 -158.24108,1.773031 -158.24108,1.773031 z"
       id="path877"
       sodipodi:nodetypes="ccccc" /></g></svg>
